<?xml version="1.0" encoding="UTF-8"?>
<svg xmlns="http://www.w3.org/2000/svg" xmlns:xlink="http://www.w3.org/1999/xlink" stroke-dasharray="none" shape-rendering="auto" font-family="'Dialog'" width="634" text-rendering="auto" fill-opacity="1" contentScriptType="text/ecmascript" color-interpolation="auto" color-rendering="auto" preserveAspectRatio="xMidYMid meet" font-size="12" viewBox="0 0 634 696" fill="black" stroke="black" image-rendering="auto" stroke-miterlimit="10" zoomAndPan="magnify" version="1.0" stroke-linecap="square" stroke-linejoin="miter" contentStyleType="text/css" font-style="normal" height="696" stroke-width="1" stroke-dashoffset="0" font-weight="normal" stroke-opacity="1">
  <!--Generated by the Batik Graphics2D SVG Generator-->
  <defs id="genericDefs" />
  <g>
    <defs id="defs1">
      <clipPath clipPathUnits="userSpaceOnUse" id="clipPath1">
        <path d="M9 9 L121 9 L121 44 L9 44 L9 9 Z" />
      </clipPath>
      <clipPath clipPathUnits="userSpaceOnUse" id="clipPath2">
        <path d="M9 9 L126 9 L126 44 L9 44 L9 9 Z" />
      </clipPath>
      <clipPath clipPathUnits="userSpaceOnUse" id="clipPath3">
        <path d="M59 42 L71 42 L71 687 L59 687 L59 42 Z" />
      </clipPath>
      <clipPath clipPathUnits="userSpaceOnUse" id="clipPath4">
        <path d="M441 9 L625 9 L625 68 L441 68 L441 9 Z" />
      </clipPath>
      <clipPath clipPathUnits="userSpaceOnUse" id="clipPath5">
        <path d="M441 9 L630 9 L630 68 L441 68 L441 9 Z" />
      </clipPath>
      <clipPath clipPathUnits="userSpaceOnUse" id="clipPath6">
        <path d="M441 9 L629 9 L629 68 L441 68 L441 9 Z" />
      </clipPath>
      <clipPath clipPathUnits="userSpaceOnUse" id="clipPath7">
        <path d="M527 66 L539 66 L539 687 L527 687 L527 66 Z" />
      </clipPath>
      <clipPath clipPathUnits="userSpaceOnUse" id="clipPath8">
        <path d="M522 86 L544 86 L544 128 L522 128 L522 86 Z" />
      </clipPath>
      <clipPath clipPathUnits="userSpaceOnUse" id="clipPath9">
        <path d="M543 86 L604 86 L604 110 L543 110 L543 86 Z" />
      </clipPath>
      <clipPath clipPathUnits="userSpaceOnUse" id="clipPath10">
        <path d="M522 199 L544 199 L544 241 L522 241 L522 199 Z" />
      </clipPath>
      <clipPath clipPathUnits="userSpaceOnUse" id="clipPath11">
        <path d="M543 199 L604 199 L604 223 L543 223 L543 199 Z" />
      </clipPath>
      <clipPath clipPathUnits="userSpaceOnUse" id="clipPath12">
        <path d="M522 305 L544 305 L544 347 L522 347 L522 305 Z" />
      </clipPath>
      <clipPath clipPathUnits="userSpaceOnUse" id="clipPath13">
        <path d="M543 305 L604 305 L604 329 L543 329 L543 305 Z" />
      </clipPath>
      <clipPath clipPathUnits="userSpaceOnUse" id="clipPath14">
        <path d="M522 476 L544 476 L544 518 L522 518 L522 476 Z" />
      </clipPath>
      <clipPath clipPathUnits="userSpaceOnUse" id="clipPath15">
        <path d="M543 476 L604 476 L604 500 L543 500 L543 476 Z" />
      </clipPath>
      <clipPath clipPathUnits="userSpaceOnUse" id="clipPath16">
        <path d="M522 131 L544 131 L544 173 L522 173 L522 131 Z" />
      </clipPath>
      <clipPath clipPathUnits="userSpaceOnUse" id="clipPath17">
        <path d="M543 131 L591 131 L591 155 L543 155 L543 131 Z" />
      </clipPath>
      <clipPath clipPathUnits="userSpaceOnUse" id="clipPath18">
        <path d="M522 244 L544 244 L544 286 L522 286 L522 244 Z" />
      </clipPath>
      <clipPath clipPathUnits="userSpaceOnUse" id="clipPath19">
        <path d="M543 244 L591 244 L591 268 L543 268 L543 244 Z" />
      </clipPath>
      <clipPath clipPathUnits="userSpaceOnUse" id="clipPath20">
        <path d="M522 350 L544 350 L544 392 L522 392 L522 350 Z" />
      </clipPath>
      <clipPath clipPathUnits="userSpaceOnUse" id="clipPath21">
        <path d="M543 350 L591 350 L591 374 L543 374 L543 350 Z" />
      </clipPath>
      <clipPath clipPathUnits="userSpaceOnUse" id="clipPath22">
        <path d="M522 521 L544 521 L544 563 L522 563 L522 521 Z" />
      </clipPath>
      <clipPath clipPathUnits="userSpaceOnUse" id="clipPath23">
        <path d="M543 521 L591 521 L591 545 L543 545 L543 521 Z" />
      </clipPath>
      <clipPath clipPathUnits="userSpaceOnUse" id="clipPath24">
        <path d="M522 416 L544 416 L544 458 L522 458 L522 416 Z" />
      </clipPath>
      <clipPath clipPathUnits="userSpaceOnUse" id="clipPath25">
        <path d="M543 416 L591 416 L591 440 L543 440 L543 416 Z" />
      </clipPath>
      <clipPath clipPathUnits="userSpaceOnUse" id="clipPath26">
        <path d="M-1 -1 L635 -1 L635 697 L-1 697 L-1 -1 Z" />
      </clipPath>
      <clipPath clipPathUnits="userSpaceOnUse" id="clipPath27">
        <path d="M186 65 L406 65 L406 89 L186 89 L186 65 Z" />
      </clipPath>
      <clipPath clipPathUnits="userSpaceOnUse" id="clipPath28">
        <path d="M63 82 L75 82 L75 93 L63 93 L63 82 Z" />
      </clipPath>
      <clipPath clipPathUnits="userSpaceOnUse" id="clipPath29">
        <path d="M131 178 L462 178 L462 202 L131 202 L131 178 Z" />
      </clipPath>
      <clipPath clipPathUnits="userSpaceOnUse" id="clipPath30">
        <path d="M63 195 L75 195 L75 206 L63 206 L63 195 Z" />
      </clipPath>
      <clipPath clipPathUnits="userSpaceOnUse" id="clipPath31">
        <path d="M166 284 L427 284 L427 308 L166 308 L166 284 Z" />
      </clipPath>
      <clipPath clipPathUnits="userSpaceOnUse" id="clipPath32">
        <path d="M63 301 L75 301 L75 312 L63 312 L63 301 Z" />
      </clipPath>
      <clipPath clipPathUnits="userSpaceOnUse" id="clipPath33">
        <path d="M68 455 L524 455 L524 479 L68 479 L68 455 Z" />
      </clipPath>
      <clipPath clipPathUnits="userSpaceOnUse" id="clipPath34">
        <path d="M63 472 L75 472 L75 483 L63 483 L63 472 Z" />
      </clipPath>
      <clipPath clipPathUnits="userSpaceOnUse" id="clipPath35">
        <path d="M131 110 L462 110 L462 134 L131 134 L131 110 Z" />
      </clipPath>
      <clipPath clipPathUnits="userSpaceOnUse" id="clipPath36">
        <path d="M514 127 L526 127 L526 138 L514 138 L514 127 Z" />
      </clipPath>
      <clipPath clipPathUnits="userSpaceOnUse" id="clipPath37">
        <path d="M131 223 L462 223 L462 247 L131 247 L131 223 Z" />
      </clipPath>
      <clipPath clipPathUnits="userSpaceOnUse" id="clipPath38">
        <path d="M514 240 L526 240 L526 251 L514 251 L514 240 Z" />
      </clipPath>
      <clipPath clipPathUnits="userSpaceOnUse" id="clipPath39">
        <path d="M131 329 L462 329 L462 353 L131 353 L131 329 Z" />
      </clipPath>
      <clipPath clipPathUnits="userSpaceOnUse" id="clipPath40">
        <path d="M514 346 L526 346 L526 357 L514 357 L514 346 Z" />
      </clipPath>
      <clipPath clipPathUnits="userSpaceOnUse" id="clipPath41">
        <path d="M192 500 L401 500 L401 524 L192 524 L192 500 Z" />
      </clipPath>
      <clipPath clipPathUnits="userSpaceOnUse" id="clipPath42">
        <path d="M514 517 L526 517 L526 528 L514 528 L514 517 Z" />
      </clipPath>
      <clipPath clipPathUnits="userSpaceOnUse" id="clipPath43">
        <path d="M125 395 L468 395 L468 419 L125 419 L125 395 Z" />
      </clipPath>
      <clipPath clipPathUnits="userSpaceOnUse" id="clipPath44">
        <path d="M514 412 L526 412 L526 423 L514 423 L514 412 Z" />
      </clipPath>
    </defs>
    <g font-size="16" fill="rgb(238,201,142)" font-family="'Lucida Sans'" stroke-linejoin="round" stroke="rgb(238,201,142)" stroke-width="0" stroke-miterlimit="0">
      <rect x="10" y="10" clip-path="url(#clipPath1)" width="110" height="33" stroke="none" />
    </g>
    <g stroke-width="0.1" font-size="16" font-family="'Lucida Sans'" stroke-linecap="butt">
      <rect x="10" y="10" clip-path="url(#clipPath1)" fill="none" width="109" height="32" />
      <text x="33" font-size="19" y="34" clip-path="url(#clipPath2)" stroke="none" xml:space="preserve">System</text>
      <line clip-path="url(#clipPath3)" fill="none" x1="64" x2="64" y1="43" y2="686" stroke-dasharray="10,10" stroke-width="1.1" />
    </g>
    <g stroke-linecap="butt" font-size="16" fill="rgb(255,245,181)" font-family="'Lucida Sans'" stroke-dasharray="10,10" stroke="rgb(255,245,181)" stroke-width="1.1">
      <rect x="442" y="10" clip-path="url(#clipPath4)" width="182" height="57" stroke="none" />
    </g>
    <g stroke-width="0.1" font-size="16" font-family="'Lucida Sans'" stroke-linecap="butt">
      <rect x="442" y="10" clip-path="url(#clipPath4)" fill="none" width="181" height="56" />
      <text x="515" font-size="19" y="35" clip-path="url(#clipPath5)" stroke="none" xml:space="preserve">bob</text>
      <text x="450" font-size="19" y="57" clip-path="url(#clipPath6)" stroke="none" xml:space="preserve">: actAuthenticated</text>
      <line clip-path="url(#clipPath7)" fill="none" x1="532" x2="532" y1="67" y2="686" stroke-dasharray="10,10" stroke-width="1.1" />
    </g>
    <g stroke-linecap="butt" font-size="16" fill="rgb(39,76,114)" font-family="'Lucida Sans'" stroke-dasharray="10,10" stroke="rgb(39,76,114)" stroke-width="1.1">
      <rect x="523" y="87" clip-path="url(#clipPath8)" width="20" height="40" stroke="none" />
      <rect x="523" y="87" clip-path="url(#clipPath8)" fill="none" width="19" stroke-dasharray="none" height="39" stroke-width="0.1" />
    </g>
    <g stroke-width="0.1" font-size="19" font-family="'Lucida Sans'" stroke-linecap="butt">
      <text xml:space="preserve" x="544" y="106" clip-path="url(#clipPath9)" stroke="none">out01</text>
      <rect x="523" y="200" clip-path="url(#clipPath10)" fill="rgb(39,76,114)" width="20" height="40" stroke="none" />
      <rect x="523" y="200" clip-path="url(#clipPath10)" fill="none" width="19" height="39" stroke="rgb(39,76,114)" />
      <text xml:space="preserve" x="544" y="219" clip-path="url(#clipPath11)" stroke="none">out02</text>
      <rect x="523" y="306" clip-path="url(#clipPath12)" fill="rgb(39,76,114)" width="20" height="40" stroke="none" />
      <rect x="523" y="306" clip-path="url(#clipPath12)" fill="none" width="19" height="39" stroke="rgb(39,76,114)" />
      <text xml:space="preserve" x="544" y="325" clip-path="url(#clipPath13)" stroke="none">out03</text>
      <rect x="523" y="477" clip-path="url(#clipPath14)" fill="rgb(39,76,114)" width="20" height="40" stroke="none" />
      <rect x="523" y="477" clip-path="url(#clipPath14)" fill="none" width="19" height="39" stroke="rgb(39,76,114)" />
      <text xml:space="preserve" x="544" y="496" clip-path="url(#clipPath15)" stroke="none">out04</text>
      <rect x="523" y="132" clip-path="url(#clipPath16)" fill="rgb(194,239,255)" width="20" height="40" stroke="none" />
      <rect x="523" y="132" clip-path="url(#clipPath16)" fill="none" width="19" height="39" stroke="rgb(194,239,255)" />
      <text xml:space="preserve" x="544" y="151" clip-path="url(#clipPath17)" stroke="none">in01</text>
      <rect x="523" y="245" clip-path="url(#clipPath18)" fill="rgb(194,239,255)" width="20" height="40" stroke="none" />
      <rect x="523" y="245" clip-path="url(#clipPath18)" fill="none" width="19" height="39" stroke="rgb(194,239,255)" />
      <text xml:space="preserve" x="544" y="264" clip-path="url(#clipPath19)" stroke="none">in02</text>
      <rect x="523" y="351" clip-path="url(#clipPath20)" fill="rgb(194,239,255)" width="20" height="40" stroke="none" />
      <rect x="523" y="351" clip-path="url(#clipPath20)" fill="none" width="19" height="39" stroke="rgb(194,239,255)" />
      <text xml:space="preserve" x="544" y="370" clip-path="url(#clipPath21)" stroke="none">in03</text>
      <rect x="523" y="522" clip-path="url(#clipPath22)" fill="rgb(194,239,255)" width="20" height="40" stroke="none" />
      <rect x="523" y="522" clip-path="url(#clipPath22)" fill="none" width="19" height="39" stroke="rgb(194,239,255)" />
      <text xml:space="preserve" x="544" y="541" clip-path="url(#clipPath23)" stroke="none">in05</text>
      <rect x="523" y="417" clip-path="url(#clipPath24)" fill="rgb(194,239,255)" width="20" height="40" stroke="none" />
      <rect x="523" y="417" clip-path="url(#clipPath24)" fill="none" width="19" height="39" stroke="rgb(194,239,255)" />
      <text xml:space="preserve" x="544" y="436" clip-path="url(#clipPath25)" stroke="none">in04</text>
      <line clip-path="url(#clipPath26)" fill="none" x1="523" x2="65" y1="87" y2="87" stroke="rgb(136,136,136)" stroke-width="2.1" />
      <text x="187" y="85" clip-path="url(#clipPath27)" stroke="none" stroke-width="2.1" xml:space="preserve">oeLogin("bob","qwertz")</text>
      <line clip-path="url(#clipPath28)" fill="none" x1="72" x2="65" y1="84" y2="87" stroke="rgb(136,136,136)" stroke-width="2.1" />
      <line clip-path="url(#clipPath28)" fill="none" x1="65" x2="72" y1="87" y2="90" stroke="rgb(136,136,136)" stroke-width="2.1" />
      <line clip-path="url(#clipPath26)" fill="none" x1="523" x2="65" y1="200" y2="200" stroke="rgb(136,136,136)" stroke-width="2.1" />
      <text x="132" y="198" clip-path="url(#clipPath29)" stroke="none" stroke-width="2.1" xml:space="preserve">oeLogin("bob","idontknowanymore")</text>
      <line clip-path="url(#clipPath30)" fill="none" x1="72" x2="65" y1="197" y2="200" stroke="rgb(136,136,136)" stroke-width="2.1" />
      <line clip-path="url(#clipPath30)" fill="none" x1="65" x2="72" y1="200" y2="203" stroke="rgb(136,136,136)" stroke-width="2.1" />
      <line clip-path="url(#clipPath26)" fill="none" x1="523" x2="65" y1="306" y2="306" stroke="rgb(136,136,136)" stroke-width="2.1" />
      <text x="167" y="304" clip-path="url(#clipPath31)" stroke="none" stroke-width="2.1" xml:space="preserve">oeLogin("bob","なんでもない")</text>
      <line clip-path="url(#clipPath32)" fill="none" x1="72" x2="65" y1="303" y2="306" stroke="rgb(136,136,136)" stroke-width="2.1" />
      <line clip-path="url(#clipPath32)" fill="none" x1="65" x2="72" y1="306" y2="309" stroke="rgb(136,136,136)" stroke-width="2.1" />
      <line clip-path="url(#clipPath26)" fill="none" x1="523" x2="65" y1="477" y2="477" stroke="rgb(136,136,136)" stroke-width="2.1" />
      <text x="69" y="475" clip-path="url(#clipPath33)" stroke="none" stroke-width="2.1" xml:space="preserve">oeLoginWithCaptcha("bob","sendhelp","C4p7cha")</text>
      <line clip-path="url(#clipPath34)" fill="none" x1="72" x2="65" y1="474" y2="477" stroke="rgb(136,136,136)" stroke-width="2.1" />
      <line clip-path="url(#clipPath34)" fill="none" x1="65" x2="72" y1="477" y2="480" stroke="rgb(136,136,136)" stroke-width="2.1" />
    </g>
    <g stroke-linecap="butt" font-size="19" fill="rgb(136,136,136)" font-family="'Lucida Sans'" stroke-dasharray="5,5" stroke="rgb(136,136,136)" stroke-width="2.1">
      <line clip-path="url(#clipPath26)" fill="none" x1="523" x2="65" y1="132" y2="132" />
      <text x="132" y="130" clip-path="url(#clipPath35)" fill="black" stroke="none" xml:space="preserve">ieLogin(Wrong Password, try again.)</text>
      <line clip-path="url(#clipPath36)" fill="none" x1="516" x2="523" y1="135" y2="132" stroke-dasharray="none" />
      <line clip-path="url(#clipPath36)" fill="none" x1="523" x2="516" y1="132" y2="129" stroke-dasharray="none" />
      <line clip-path="url(#clipPath26)" fill="none" x1="523" x2="65" y1="245" y2="245" />
      <text x="132" y="243" clip-path="url(#clipPath37)" fill="black" stroke="none" xml:space="preserve">ieLogin(Wrong Password, try again.)</text>
      <line clip-path="url(#clipPath38)" fill="none" x1="516" x2="523" y1="248" y2="245" stroke-dasharray="none" />
      <line clip-path="url(#clipPath38)" fill="none" x1="523" x2="516" y1="245" y2="242" stroke-dasharray="none" />
      <line clip-path="url(#clipPath26)" fill="none" x1="523" x2="65" y1="351" y2="351" />
      <text x="132" y="349" clip-path="url(#clipPath39)" fill="black" stroke="none" xml:space="preserve">ieLogin(Wrong Password, try again.)</text>
      <line clip-path="url(#clipPath40)" fill="none" x1="516" x2="523" y1="354" y2="351" stroke-dasharray="none" />
      <line clip-path="url(#clipPath40)" fill="none" x1="523" x2="516" y1="351" y2="348" stroke-dasharray="none" />
      <line clip-path="url(#clipPath26)" fill="none" x1="523" x2="65" y1="522" y2="522" />
      <text x="193" y="520" clip-path="url(#clipPath41)" fill="black" stroke="none" xml:space="preserve">ieLogin(Welcome bob.)</text>
      <line clip-path="url(#clipPath42)" fill="none" x1="516" x2="523" y1="525" y2="522" stroke-dasharray="none" />
      <line clip-path="url(#clipPath42)" fill="none" x1="523" x2="516" y1="522" y2="519" stroke-dasharray="none" />
      <line clip-path="url(#clipPath26)" fill="none" x1="523" x2="65" y1="417" y2="417" />
      <text x="126" y="415" clip-path="url(#clipPath43)" fill="black" stroke="none" xml:space="preserve">ieLogin(Login with captcha required.)</text>
      <line clip-path="url(#clipPath44)" fill="none" x1="516" x2="523" y1="420" y2="417" stroke-dasharray="none" />
      <line clip-path="url(#clipPath44)" fill="none" x1="523" x2="516" y1="417" y2="414" stroke-dasharray="none" />
    </g>
  </g>
</svg>

