<?xml version="1.0" encoding="UTF-8"?>
<svg xmlns="http://www.w3.org/2000/svg" xmlns:xlink="http://www.w3.org/1999/xlink" stroke-dasharray="none" shape-rendering="auto" font-family="'Dialog'" width="886" text-rendering="auto" fill-opacity="1" contentScriptType="text/ecmascript" color-interpolation="auto" color-rendering="auto" preserveAspectRatio="xMidYMid meet" font-size="12" viewBox="0 0 886 730" fill="black" stroke="black" image-rendering="auto" stroke-miterlimit="10" zoomAndPan="magnify" version="1.0" stroke-linecap="square" stroke-linejoin="miter" contentStyleType="text/css" font-style="normal" height="730" stroke-width="1" stroke-dashoffset="0" font-weight="normal" stroke-opacity="1">
  <!--Generated by the Batik Graphics2D SVG Generator-->
  <defs id="genericDefs" />
  <g>
    <defs id="defs1">
      <clipPath clipPathUnits="userSpaceOnUse" id="clipPath1">
        <path d="M9 9 L81 9 L81 41 L9 41 L9 9 Z" />
      </clipPath>
      <clipPath clipPathUnits="userSpaceOnUse" id="clipPath2">
        <path d="M9 9 L86 9 L86 41 L9 41 L9 9 Z" />
      </clipPath>
      <clipPath clipPathUnits="userSpaceOnUse" id="clipPath3">
        <path d="M39 39 L51 39 L51 721 L39 721 L39 39 Z" />
      </clipPath>
      <clipPath clipPathUnits="userSpaceOnUse" id="clipPath4">
        <path d="M725 9 L877 9 L877 61 L725 61 L725 9 Z" />
      </clipPath>
      <clipPath clipPathUnits="userSpaceOnUse" id="clipPath5">
        <path d="M725 9 L882 9 L882 61 L725 61 L725 9 Z" />
      </clipPath>
      <clipPath clipPathUnits="userSpaceOnUse" id="clipPath6">
        <path d="M725 9 L880 9 L880 61 L725 61 L725 9 Z" />
      </clipPath>
      <clipPath clipPathUnits="userSpaceOnUse" id="clipPath7">
        <path d="M725 9 L881 9 L881 61 L725 61 L725 9 Z" />
      </clipPath>
      <clipPath clipPathUnits="userSpaceOnUse" id="clipPath8">
        <path d="M795 59 L807 59 L807 721 L795 721 L795 59 Z" />
      </clipPath>
      <clipPath clipPathUnits="userSpaceOnUse" id="clipPath9">
        <path d="M790 89 L812 89 L812 131 L790 131 L790 89 Z" />
      </clipPath>
      <clipPath clipPathUnits="userSpaceOnUse" id="clipPath10">
        <path d="M811 89 L872 89 L872 114 L811 114 L811 89 Z" />
      </clipPath>
      <clipPath clipPathUnits="userSpaceOnUse" id="clipPath11">
        <path d="M790 209 L812 209 L812 251 L790 251 L790 209 Z" />
      </clipPath>
      <clipPath clipPathUnits="userSpaceOnUse" id="clipPath12">
        <path d="M811 209 L872 209 L872 234 L811 234 L811 209 Z" />
      </clipPath>
      <clipPath clipPathUnits="userSpaceOnUse" id="clipPath13">
        <path d="M790 329 L812 329 L812 371 L790 371 L790 329 Z" />
      </clipPath>
      <clipPath clipPathUnits="userSpaceOnUse" id="clipPath14">
        <path d="M811 329 L872 329 L872 354 L811 354 L811 329 Z" />
      </clipPath>
      <clipPath clipPathUnits="userSpaceOnUse" id="clipPath15">
        <path d="M790 449 L812 449 L812 491 L790 491 L790 449 Z" />
      </clipPath>
      <clipPath clipPathUnits="userSpaceOnUse" id="clipPath16">
        <path d="M811 449 L872 449 L872 474 L811 474 L811 449 Z" />
      </clipPath>
      <clipPath clipPathUnits="userSpaceOnUse" id="clipPath17">
        <path d="M790 569 L812 569 L812 611 L790 611 L790 569 Z" />
      </clipPath>
      <clipPath clipPathUnits="userSpaceOnUse" id="clipPath18">
        <path d="M811 569 L872 569 L872 594 L811 594 L811 569 Z" />
      </clipPath>
      <clipPath clipPathUnits="userSpaceOnUse" id="clipPath19">
        <path d="M790 149 L812 149 L812 191 L790 191 L790 149 Z" />
      </clipPath>
      <clipPath clipPathUnits="userSpaceOnUse" id="clipPath20">
        <path d="M811 149 L859 149 L859 174 L811 174 L811 149 Z" />
      </clipPath>
      <clipPath clipPathUnits="userSpaceOnUse" id="clipPath21">
        <path d="M790 269 L812 269 L812 311 L790 311 L790 269 Z" />
      </clipPath>
      <clipPath clipPathUnits="userSpaceOnUse" id="clipPath22">
        <path d="M811 269 L859 269 L859 294 L811 294 L811 269 Z" />
      </clipPath>
      <clipPath clipPathUnits="userSpaceOnUse" id="clipPath23">
        <path d="M790 389 L812 389 L812 431 L790 431 L790 389 Z" />
      </clipPath>
      <clipPath clipPathUnits="userSpaceOnUse" id="clipPath24">
        <path d="M811 389 L859 389 L859 414 L811 414 L811 389 Z" />
      </clipPath>
      <clipPath clipPathUnits="userSpaceOnUse" id="clipPath25">
        <path d="M790 509 L812 509 L812 551 L790 551 L790 509 Z" />
      </clipPath>
      <clipPath clipPathUnits="userSpaceOnUse" id="clipPath26">
        <path d="M811 509 L859 509 L859 534 L811 534 L811 509 Z" />
      </clipPath>
      <clipPath clipPathUnits="userSpaceOnUse" id="clipPath27">
        <path d="M790 629 L812 629 L812 671 L790 671 L790 629 Z" />
      </clipPath>
      <clipPath clipPathUnits="userSpaceOnUse" id="clipPath28">
        <path d="M811 629 L859 629 L859 654 L811 654 L811 629 Z" />
      </clipPath>
      <clipPath clipPathUnits="userSpaceOnUse" id="clipPath29">
        <path d="M-1 -1 L887 -1 L887 731 L-1 731 L-1 -1 Z" />
      </clipPath>
      <clipPath clipPathUnits="userSpaceOnUse" id="clipPath30">
        <path d="M245 68 L597 68 L597 93 L245 93 L245 68 Z" />
      </clipPath>
      <clipPath clipPathUnits="userSpaceOnUse" id="clipPath31">
        <path d="M43 85 L55 85 L55 96 L43 96 L43 85 Z" />
      </clipPath>
      <clipPath clipPathUnits="userSpaceOnUse" id="clipPath32">
        <path d="M207 188 L634 188 L634 213 L207 213 L207 188 Z" />
      </clipPath>
      <clipPath clipPathUnits="userSpaceOnUse" id="clipPath33">
        <path d="M43 205 L55 205 L55 216 L43 216 L43 205 Z" />
      </clipPath>
      <clipPath clipPathUnits="userSpaceOnUse" id="clipPath34">
        <path d="M217 308 L625 308 L625 333 L217 333 L217 308 Z" />
      </clipPath>
      <clipPath clipPathUnits="userSpaceOnUse" id="clipPath35">
        <path d="M43 325 L55 325 L55 336 L43 336 L43 325 Z" />
      </clipPath>
      <clipPath clipPathUnits="userSpaceOnUse" id="clipPath36">
        <path d="M300 428 L540 428 L540 453 L300 453 L300 428 Z" />
      </clipPath>
      <clipPath clipPathUnits="userSpaceOnUse" id="clipPath37">
        <path d="M43 445 L55 445 L55 456 L43 456 L43 445 Z" />
      </clipPath>
      <clipPath clipPathUnits="userSpaceOnUse" id="clipPath38">
        <path d="M368 548 L473 548 L473 573 L368 573 L368 548 Z" />
      </clipPath>
      <clipPath clipPathUnits="userSpaceOnUse" id="clipPath39">
        <path d="M43 565 L55 565 L55 576 L43 576 L43 565 Z" />
      </clipPath>
      <clipPath clipPathUnits="userSpaceOnUse" id="clipPath40">
        <path d="M252 128 L588 128 L588 153 L252 153 L252 128 Z" />
      </clipPath>
      <clipPath clipPathUnits="userSpaceOnUse" id="clipPath41">
        <path d="M782 145 L794 145 L794 156 L782 156 L782 145 Z" />
      </clipPath>
      <clipPath clipPathUnits="userSpaceOnUse" id="clipPath42">
        <path d="M318 248 L523 248 L523 273 L318 273 L318 248 Z" />
      </clipPath>
      <clipPath clipPathUnits="userSpaceOnUse" id="clipPath43">
        <path d="M782 265 L794 265 L794 276 L782 276 L782 265 Z" />
      </clipPath>
      <clipPath clipPathUnits="userSpaceOnUse" id="clipPath44">
        <path d="M308 368 L532 368 L532 393 L308 393 L308 368 Z" />
      </clipPath>
      <clipPath clipPathUnits="userSpaceOnUse" id="clipPath45">
        <path d="M782 385 L794 385 L794 396 L782 396 L782 385 Z" />
      </clipPath>
      <clipPath clipPathUnits="userSpaceOnUse" id="clipPath46">
        <path d="M312 488 L528 488 L528 513 L312 513 L312 488 Z" />
      </clipPath>
      <clipPath clipPathUnits="userSpaceOnUse" id="clipPath47">
        <path d="M782 505 L794 505 L794 516 L782 516 L782 505 Z" />
      </clipPath>
      <clipPath clipPathUnits="userSpaceOnUse" id="clipPath48">
        <path d="M239 608 L601 608 L601 633 L239 633 L239 608 Z" />
      </clipPath>
      <clipPath clipPathUnits="userSpaceOnUse" id="clipPath49">
        <path d="M782 625 L794 625 L794 636 L782 636 L782 625 Z" />
      </clipPath>
    </defs>
    <g fill="rgb(238,201,142)" stroke-miterlimit="0" stroke-width="0" stroke="rgb(238,201,142)" stroke-linejoin="round">
      <rect x="10" y="10" clip-path="url(#clipPath1)" width="70" height="30" stroke="none" />
    </g>
    <g stroke-linecap="butt" stroke-width="0.1">
      <rect x="10" y="10" clip-path="url(#clipPath1)" fill="none" width="69" height="29" />
      <text x="10" font-size="19" y="31" clip-path="url(#clipPath2)" stroke="none" xml:space="preserve">System</text>
      <line clip-path="url(#clipPath3)" fill="none" x1="44" x2="44" y1="40" y2="720" stroke-dasharray="10,10" stroke-width="1.1" />
    </g>
    <g fill="rgb(255,245,181)" stroke-dasharray="10,10" stroke-width="1.1" stroke-linecap="butt" stroke="rgb(255,245,181)">
      <rect x="726" y="10" clip-path="url(#clipPath4)" width="150" height="50" stroke="none" />
    </g>
    <g stroke-linecap="butt" stroke-width="0.1">
      <rect x="726" y="10" clip-path="url(#clipPath4)" fill="none" width="149" height="49" />
      <text x="771" font-size="19" y="19" clip-path="url(#clipPath5)" stroke="none" xml:space="preserve">admin</text>
      <text x="794" font-size="19" y="42" clip-path="url(#clipPath6)" stroke="none" xml:space="preserve">: </text>
      <text x="727" font-size="19" y="65" clip-path="url(#clipPath7)" stroke="none" xml:space="preserve">actAdministra...</text>
      <line clip-path="url(#clipPath8)" fill="none" x1="800" x2="800" y1="60" y2="720" stroke-dasharray="10,10" stroke-width="1.1" />
    </g>
    <g fill="rgb(39,76,114)" stroke-dasharray="10,10" stroke-width="1.1" stroke-linecap="butt" stroke="rgb(39,76,114)">
      <rect x="791" y="90" clip-path="url(#clipPath9)" width="20" height="40" stroke="none" />
      <rect x="791" y="90" clip-path="url(#clipPath9)" fill="none" width="19" stroke-dasharray="none" height="39" stroke-width="0.1" />
    </g>
    <g font-size="19" stroke-width="0.1" stroke-linecap="butt">
      <text xml:space="preserve" x="812" y="108" clip-path="url(#clipPath10)" stroke="none">out01</text>
      <rect x="791" y="210" clip-path="url(#clipPath11)" fill="rgb(39,76,114)" width="20" height="40" stroke="none" />
      <rect x="791" y="210" clip-path="url(#clipPath11)" fill="none" width="19" height="39" stroke="rgb(39,76,114)" />
      <text xml:space="preserve" x="812" y="228" clip-path="url(#clipPath12)" stroke="none">out02</text>
      <rect x="791" y="330" clip-path="url(#clipPath13)" fill="rgb(39,76,114)" width="20" height="40" stroke="none" />
      <rect x="791" y="330" clip-path="url(#clipPath13)" fill="none" width="19" height="39" stroke="rgb(39,76,114)" />
      <text xml:space="preserve" x="812" y="348" clip-path="url(#clipPath14)" stroke="none">out03</text>
      <rect x="791" y="450" clip-path="url(#clipPath15)" fill="rgb(39,76,114)" width="20" height="40" stroke="none" />
      <rect x="791" y="450" clip-path="url(#clipPath15)" fill="none" width="19" height="39" stroke="rgb(39,76,114)" />
      <text xml:space="preserve" x="812" y="468" clip-path="url(#clipPath16)" stroke="none">out04</text>
      <rect x="791" y="570" clip-path="url(#clipPath17)" fill="rgb(39,76,114)" width="20" height="40" stroke="none" />
      <rect x="791" y="570" clip-path="url(#clipPath17)" fill="none" width="19" height="39" stroke="rgb(39,76,114)" />
      <text xml:space="preserve" x="812" y="588" clip-path="url(#clipPath18)" stroke="none">out05</text>
      <rect x="791" y="150" clip-path="url(#clipPath19)" fill="rgb(194,239,255)" width="20" height="40" stroke="none" />
      <rect x="791" y="150" clip-path="url(#clipPath19)" fill="none" width="19" height="39" stroke="rgb(194,239,255)" />
      <text xml:space="preserve" x="812" y="168" clip-path="url(#clipPath20)" stroke="none">in01</text>
      <rect x="791" y="270" clip-path="url(#clipPath21)" fill="rgb(194,239,255)" width="20" height="40" stroke="none" />
      <rect x="791" y="270" clip-path="url(#clipPath21)" fill="none" width="19" height="39" stroke="rgb(194,239,255)" />
      <text xml:space="preserve" x="812" y="288" clip-path="url(#clipPath22)" stroke="none">in02</text>
      <rect x="791" y="390" clip-path="url(#clipPath23)" fill="rgb(194,239,255)" width="20" height="40" stroke="none" />
      <rect x="791" y="390" clip-path="url(#clipPath23)" fill="none" width="19" height="39" stroke="rgb(194,239,255)" />
      <text xml:space="preserve" x="812" y="408" clip-path="url(#clipPath24)" stroke="none">in03</text>
      <rect x="791" y="510" clip-path="url(#clipPath25)" fill="rgb(194,239,255)" width="20" height="40" stroke="none" />
      <rect x="791" y="510" clip-path="url(#clipPath25)" fill="none" width="19" height="39" stroke="rgb(194,239,255)" />
      <text xml:space="preserve" x="812" y="528" clip-path="url(#clipPath26)" stroke="none">in04</text>
      <rect x="791" y="630" clip-path="url(#clipPath27)" fill="rgb(194,239,255)" width="20" height="40" stroke="none" />
      <rect x="791" y="630" clip-path="url(#clipPath27)" fill="none" width="19" height="39" stroke="rgb(194,239,255)" />
      <text xml:space="preserve" x="812" y="648" clip-path="url(#clipPath28)" stroke="none">in05</text>
      <line clip-path="url(#clipPath29)" fill="none" x1="791" x2="45" y1="90" y2="90" stroke="rgb(136,136,136)" stroke-width="2.1" />
      <text x="246" y="87" clip-path="url(#clipPath30)" stroke="none" stroke-width="2.1" xml:space="preserve">oeLogin("icrashadmin","7WXC1359")</text>
      <line clip-path="url(#clipPath31)" fill="none" x1="52" x2="45" y1="87" y2="90" stroke="rgb(136,136,136)" stroke-width="2.1" />
      <line clip-path="url(#clipPath31)" fill="none" x1="45" x2="52" y1="90" y2="93" stroke="rgb(136,136,136)" stroke-width="2.1" />
      <line clip-path="url(#clipPath29)" fill="none" x1="791" x2="45" y1="210" y2="210" stroke="rgb(136,136,136)" stroke-width="2.1" />
      <text x="208" y="207" clip-path="url(#clipPath32)" stroke="none" stroke-width="2.1" xml:space="preserve">oeAddCoordinator("1","bob","password","1")</text>
      <line clip-path="url(#clipPath33)" fill="none" x1="52" x2="45" y1="207" y2="210" stroke="rgb(136,136,136)" stroke-width="2.1" />
      <line clip-path="url(#clipPath33)" fill="none" x1="45" x2="52" y1="210" y2="213" stroke="rgb(136,136,136)" stroke-width="2.1" />
      <line clip-path="url(#clipPath29)" fill="none" x1="791" x2="45" y1="330" y2="330" stroke="rgb(136,136,136)" stroke-width="2.1" />
      <text x="218" y="327" clip-path="url(#clipPath34)" stroke="none" stroke-width="2.1" xml:space="preserve">oeUpdateCoordinatorAccessRights("1","2")</text>
      <line clip-path="url(#clipPath35)" fill="none" x1="52" x2="45" y1="327" y2="330" stroke="rgb(136,136,136)" stroke-width="2.1" />
      <line clip-path="url(#clipPath35)" fill="none" x1="45" x2="52" y1="330" y2="333" stroke="rgb(136,136,136)" stroke-width="2.1" />
      <line clip-path="url(#clipPath29)" fill="none" x1="791" x2="45" y1="450" y2="450" stroke="rgb(136,136,136)" stroke-width="2.1" />
      <text x="301" y="447" clip-path="url(#clipPath36)" stroke="none" stroke-width="2.1" xml:space="preserve">oeDeleteCoordinator("1")</text>
      <line clip-path="url(#clipPath37)" fill="none" x1="52" x2="45" y1="447" y2="450" stroke="rgb(136,136,136)" stroke-width="2.1" />
      <line clip-path="url(#clipPath37)" fill="none" x1="45" x2="52" y1="450" y2="453" stroke="rgb(136,136,136)" stroke-width="2.1" />
      <line clip-path="url(#clipPath29)" fill="none" x1="791" x2="45" y1="570" y2="570" stroke="rgb(136,136,136)" stroke-width="2.1" />
      <text x="369" y="567" clip-path="url(#clipPath38)" stroke="none" stroke-width="2.1" xml:space="preserve">oeLogout()</text>
      <line clip-path="url(#clipPath39)" fill="none" x1="52" x2="45" y1="567" y2="570" stroke="rgb(136,136,136)" stroke-width="2.1" />
      <line clip-path="url(#clipPath39)" fill="none" x1="45" x2="52" y1="570" y2="573" stroke="rgb(136,136,136)" stroke-width="2.1" />
    </g>
    <g stroke-linecap="butt" font-size="19" fill="rgb(136,136,136)" stroke-dasharray="5,5" stroke="rgb(136,136,136)" stroke-width="2.1">
      <line clip-path="url(#clipPath29)" fill="none" x1="791" x2="45" y1="150" y2="150" />
      <text x="253" y="147" clip-path="url(#clipPath40)" fill="black" stroke="none" xml:space="preserve">ieLogin(You successfully logged in!)</text>
      <line clip-path="url(#clipPath41)" fill="none" x1="784" x2="791" y1="153" y2="150" stroke-dasharray="none" />
      <line clip-path="url(#clipPath41)" fill="none" x1="791" x2="784" y1="150" y2="147" stroke-dasharray="none" />
      <line clip-path="url(#clipPath29)" fill="none" x1="791" x2="45" y1="270" y2="270" />
      <text x="319" y="267" clip-path="url(#clipPath42)" fill="black" stroke="none" xml:space="preserve">ieCoordinatorAdded()</text>
      <line clip-path="url(#clipPath43)" fill="none" x1="784" x2="791" y1="273" y2="270" stroke-dasharray="none" />
      <line clip-path="url(#clipPath43)" fill="none" x1="791" x2="784" y1="270" y2="267" stroke-dasharray="none" />
      <line clip-path="url(#clipPath29)" fill="none" x1="791" x2="45" y1="390" y2="390" />
      <text x="309" y="387" clip-path="url(#clipPath44)" fill="black" stroke="none" xml:space="preserve">ieCoordinatorUpdated()</text>
      <line clip-path="url(#clipPath45)" fill="none" x1="784" x2="791" y1="393" y2="390" stroke-dasharray="none" />
      <line clip-path="url(#clipPath45)" fill="none" x1="791" x2="784" y1="390" y2="387" stroke-dasharray="none" />
      <line clip-path="url(#clipPath29)" fill="none" x1="791" x2="45" y1="510" y2="510" />
      <text x="313" y="507" clip-path="url(#clipPath46)" fill="black" stroke="none" xml:space="preserve">ieCoordinatorDeleted()</text>
      <line clip-path="url(#clipPath47)" fill="none" x1="784" x2="791" y1="513" y2="510" stroke-dasharray="none" />
      <line clip-path="url(#clipPath47)" fill="none" x1="791" x2="784" y1="510" y2="507" stroke-dasharray="none" />
      <line clip-path="url(#clipPath29)" fill="none" x1="791" x2="45" y1="630" y2="630" />
      <text x="240" y="627" clip-path="url(#clipPath48)" fill="black" stroke="none" xml:space="preserve">ieLogout(You successfully logged out!)</text>
      <line clip-path="url(#clipPath49)" fill="none" x1="784" x2="791" y1="633" y2="630" stroke-dasharray="none" />
      <line clip-path="url(#clipPath49)" fill="none" x1="791" x2="784" y1="630" y2="627" stroke-dasharray="none" />
    </g>
  </g>
</svg>

