<?xml version="1.0" encoding="UTF-8"?>
<svg xmlns="http://www.w3.org/2000/svg" xmlns:xlink="http://www.w3.org/1999/xlink" stroke-dasharray="none" shape-rendering="auto" font-family="'Dialog'" width="641" text-rendering="auto" fill-opacity="1" contentScriptType="text/ecmascript" color-interpolation="auto" color-rendering="auto" preserveAspectRatio="xMidYMid meet" font-size="12" viewBox="0 0 641 730" fill="black" stroke="black" image-rendering="auto" stroke-miterlimit="10" zoomAndPan="magnify" version="1.0" stroke-linecap="square" stroke-linejoin="miter" contentStyleType="text/css" font-style="normal" height="730" stroke-width="1" stroke-dashoffset="0" font-weight="normal" stroke-opacity="1">
  <!--Generated by the Batik Graphics2D SVG Generator-->
  <defs id="genericDefs" />
  <g>
    <defs id="defs1">
      <clipPath clipPathUnits="userSpaceOnUse" id="clipPath1">
        <path d="M9 9 L81 9 L81 41 L9 41 L9 9 Z" />
      </clipPath>
      <clipPath clipPathUnits="userSpaceOnUse" id="clipPath2">
        <path d="M9 9 L86 9 L86 41 L9 41 L9 9 Z" />
      </clipPath>
      <clipPath clipPathUnits="userSpaceOnUse" id="clipPath3">
        <path d="M39 39 L51 39 L51 721 L39 721 L39 39 Z" />
      </clipPath>
      <clipPath clipPathUnits="userSpaceOnUse" id="clipPath4">
        <path d="M458 9 L632 9 L632 61 L458 61 L458 9 Z" />
      </clipPath>
      <clipPath clipPathUnits="userSpaceOnUse" id="clipPath5">
        <path d="M458 9 L637 9 L637 61 L458 61 L458 9 Z" />
      </clipPath>
      <clipPath clipPathUnits="userSpaceOnUse" id="clipPath6">
        <path d="M458 9 L636 9 L636 61 L458 61 L458 9 Z" />
      </clipPath>
      <clipPath clipPathUnits="userSpaceOnUse" id="clipPath7">
        <path d="M539 59 L551 59 L551 721 L539 721 L539 59 Z" />
      </clipPath>
      <clipPath clipPathUnits="userSpaceOnUse" id="clipPath8">
        <path d="M534 89 L556 89 L556 131 L534 131 L534 89 Z" />
      </clipPath>
      <clipPath clipPathUnits="userSpaceOnUse" id="clipPath9">
        <path d="M555 89 L616 89 L616 114 L555 114 L555 89 Z" />
      </clipPath>
      <clipPath clipPathUnits="userSpaceOnUse" id="clipPath10">
        <path d="M534 209 L556 209 L556 251 L534 251 L534 209 Z" />
      </clipPath>
      <clipPath clipPathUnits="userSpaceOnUse" id="clipPath11">
        <path d="M555 209 L616 209 L616 234 L555 234 L555 209 Z" />
      </clipPath>
      <clipPath clipPathUnits="userSpaceOnUse" id="clipPath12">
        <path d="M534 329 L556 329 L556 371 L534 371 L534 329 Z" />
      </clipPath>
      <clipPath clipPathUnits="userSpaceOnUse" id="clipPath13">
        <path d="M555 329 L616 329 L616 354 L555 354 L555 329 Z" />
      </clipPath>
      <clipPath clipPathUnits="userSpaceOnUse" id="clipPath14">
        <path d="M534 449 L556 449 L556 491 L534 491 L534 449 Z" />
      </clipPath>
      <clipPath clipPathUnits="userSpaceOnUse" id="clipPath15">
        <path d="M555 449 L616 449 L616 474 L555 474 L555 449 Z" />
      </clipPath>
      <clipPath clipPathUnits="userSpaceOnUse" id="clipPath16">
        <path d="M534 569 L556 569 L556 611 L534 611 L534 569 Z" />
      </clipPath>
      <clipPath clipPathUnits="userSpaceOnUse" id="clipPath17">
        <path d="M555 569 L616 569 L616 594 L555 594 L555 569 Z" />
      </clipPath>
      <clipPath clipPathUnits="userSpaceOnUse" id="clipPath18">
        <path d="M534 149 L556 149 L556 191 L534 191 L534 149 Z" />
      </clipPath>
      <clipPath clipPathUnits="userSpaceOnUse" id="clipPath19">
        <path d="M555 149 L603 149 L603 174 L555 174 L555 149 Z" />
      </clipPath>
      <clipPath clipPathUnits="userSpaceOnUse" id="clipPath20">
        <path d="M534 269 L556 269 L556 311 L534 311 L534 269 Z" />
      </clipPath>
      <clipPath clipPathUnits="userSpaceOnUse" id="clipPath21">
        <path d="M555 269 L603 269 L603 294 L555 294 L555 269 Z" />
      </clipPath>
      <clipPath clipPathUnits="userSpaceOnUse" id="clipPath22">
        <path d="M534 389 L556 389 L556 431 L534 431 L534 389 Z" />
      </clipPath>
      <clipPath clipPathUnits="userSpaceOnUse" id="clipPath23">
        <path d="M555 389 L603 389 L603 414 L555 414 L555 389 Z" />
      </clipPath>
      <clipPath clipPathUnits="userSpaceOnUse" id="clipPath24">
        <path d="M534 509 L556 509 L556 551 L534 551 L534 509 Z" />
      </clipPath>
      <clipPath clipPathUnits="userSpaceOnUse" id="clipPath25">
        <path d="M555 509 L603 509 L603 534 L555 534 L555 509 Z" />
      </clipPath>
      <clipPath clipPathUnits="userSpaceOnUse" id="clipPath26">
        <path d="M534 629 L556 629 L556 671 L534 671 L534 629 Z" />
      </clipPath>
      <clipPath clipPathUnits="userSpaceOnUse" id="clipPath27">
        <path d="M555 629 L603 629 L603 654 L555 654 L555 629 Z" />
      </clipPath>
      <clipPath clipPathUnits="userSpaceOnUse" id="clipPath28">
        <path d="M-1 -1 L642 -1 L642 731 L-1 731 L-1 -1 Z" />
      </clipPath>
      <clipPath clipPathUnits="userSpaceOnUse" id="clipPath29">
        <path d="M117 68 L469 68 L469 93 L117 93 L117 68 Z" />
      </clipPath>
      <clipPath clipPathUnits="userSpaceOnUse" id="clipPath30">
        <path d="M43 85 L55 85 L55 96 L43 96 L43 85 Z" />
      </clipPath>
      <clipPath clipPathUnits="userSpaceOnUse" id="clipPath31">
        <path d="M79 188 L506 188 L506 213 L79 213 L79 188 Z" />
      </clipPath>
      <clipPath clipPathUnits="userSpaceOnUse" id="clipPath32">
        <path d="M43 205 L55 205 L55 216 L43 216 L43 205 Z" />
      </clipPath>
      <clipPath clipPathUnits="userSpaceOnUse" id="clipPath33">
        <path d="M89 308 L497 308 L497 333 L89 333 L89 308 Z" />
      </clipPath>
      <clipPath clipPathUnits="userSpaceOnUse" id="clipPath34">
        <path d="M43 325 L55 325 L55 336 L43 336 L43 325 Z" />
      </clipPath>
      <clipPath clipPathUnits="userSpaceOnUse" id="clipPath35">
        <path d="M172 428 L412 428 L412 453 L172 453 L172 428 Z" />
      </clipPath>
      <clipPath clipPathUnits="userSpaceOnUse" id="clipPath36">
        <path d="M43 445 L55 445 L55 456 L43 456 L43 445 Z" />
      </clipPath>
      <clipPath clipPathUnits="userSpaceOnUse" id="clipPath37">
        <path d="M240 548 L345 548 L345 573 L240 573 L240 548 Z" />
      </clipPath>
      <clipPath clipPathUnits="userSpaceOnUse" id="clipPath38">
        <path d="M43 565 L55 565 L55 576 L43 576 L43 565 Z" />
      </clipPath>
      <clipPath clipPathUnits="userSpaceOnUse" id="clipPath39">
        <path d="M124 128 L460 128 L460 153 L124 153 L124 128 Z" />
      </clipPath>
      <clipPath clipPathUnits="userSpaceOnUse" id="clipPath40">
        <path d="M526 145 L538 145 L538 156 L526 156 L526 145 Z" />
      </clipPath>
      <clipPath clipPathUnits="userSpaceOnUse" id="clipPath41">
        <path d="M190 248 L395 248 L395 273 L190 273 L190 248 Z" />
      </clipPath>
      <clipPath clipPathUnits="userSpaceOnUse" id="clipPath42">
        <path d="M526 265 L538 265 L538 276 L526 276 L526 265 Z" />
      </clipPath>
      <clipPath clipPathUnits="userSpaceOnUse" id="clipPath43">
        <path d="M180 368 L404 368 L404 393 L180 393 L180 368 Z" />
      </clipPath>
      <clipPath clipPathUnits="userSpaceOnUse" id="clipPath44">
        <path d="M526 385 L538 385 L538 396 L526 396 L526 385 Z" />
      </clipPath>
      <clipPath clipPathUnits="userSpaceOnUse" id="clipPath45">
        <path d="M184 488 L400 488 L400 513 L184 513 L184 488 Z" />
      </clipPath>
      <clipPath clipPathUnits="userSpaceOnUse" id="clipPath46">
        <path d="M526 505 L538 505 L538 516 L526 516 L526 505 Z" />
      </clipPath>
      <clipPath clipPathUnits="userSpaceOnUse" id="clipPath47">
        <path d="M111 608 L473 608 L473 633 L111 633 L111 608 Z" />
      </clipPath>
      <clipPath clipPathUnits="userSpaceOnUse" id="clipPath48">
        <path d="M526 625 L538 625 L538 636 L526 636 L526 625 Z" />
      </clipPath>
    </defs>
    <g fill="rgb(238,201,142)" stroke-miterlimit="0" stroke-width="0" stroke="rgb(238,201,142)" stroke-linejoin="round">
      <rect x="10" y="10" clip-path="url(#clipPath1)" width="70" height="30" stroke="none" />
    </g>
    <g stroke-linecap="butt" stroke-width="0.1">
      <rect x="10" y="10" clip-path="url(#clipPath1)" fill="none" width="69" height="29" />
      <text x="10" font-size="19" y="31" clip-path="url(#clipPath2)" stroke="none" xml:space="preserve">System</text>
      <line clip-path="url(#clipPath3)" fill="none" x1="44" x2="44" y1="40" y2="720" stroke-dasharray="10,10" stroke-width="1.1" />
    </g>
    <g fill="rgb(255,245,181)" stroke-dasharray="10,10" stroke-width="1.1" stroke-linecap="butt" stroke="rgb(255,245,181)">
      <rect x="459" y="10" clip-path="url(#clipPath4)" width="172" height="50" stroke="none" />
    </g>
    <g stroke-linecap="butt" stroke-width="0.1">
      <rect x="459" y="10" clip-path="url(#clipPath4)" fill="none" width="171" height="49" />
      <text x="515" font-size="19" y="30" clip-path="url(#clipPath5)" stroke="none" xml:space="preserve">admin</text>
      <text x="461" font-size="19" y="53" clip-path="url(#clipPath6)" stroke="none" xml:space="preserve">: actAdministrator</text>
      <line clip-path="url(#clipPath7)" fill="none" x1="544" x2="544" y1="60" y2="720" stroke-dasharray="10,10" stroke-width="1.1" />
    </g>
    <g fill="rgb(39,76,114)" stroke-dasharray="10,10" stroke-width="1.1" stroke-linecap="butt" stroke="rgb(39,76,114)">
      <rect x="535" y="90" clip-path="url(#clipPath8)" width="20" height="40" stroke="none" />
      <rect x="535" y="90" clip-path="url(#clipPath8)" fill="none" width="19" stroke-dasharray="none" height="39" stroke-width="0.1" />
    </g>
    <g font-size="19" stroke-width="0.1" stroke-linecap="butt">
      <text xml:space="preserve" x="556" y="108" clip-path="url(#clipPath9)" stroke="none">out01</text>
      <rect x="535" y="210" clip-path="url(#clipPath10)" fill="rgb(39,76,114)" width="20" height="40" stroke="none" />
      <rect x="535" y="210" clip-path="url(#clipPath10)" fill="none" width="19" height="39" stroke="rgb(39,76,114)" />
      <text xml:space="preserve" x="556" y="228" clip-path="url(#clipPath11)" stroke="none">out02</text>
      <rect x="535" y="330" clip-path="url(#clipPath12)" fill="rgb(39,76,114)" width="20" height="40" stroke="none" />
      <rect x="535" y="330" clip-path="url(#clipPath12)" fill="none" width="19" height="39" stroke="rgb(39,76,114)" />
      <text xml:space="preserve" x="556" y="348" clip-path="url(#clipPath13)" stroke="none">out03</text>
      <rect x="535" y="450" clip-path="url(#clipPath14)" fill="rgb(39,76,114)" width="20" height="40" stroke="none" />
      <rect x="535" y="450" clip-path="url(#clipPath14)" fill="none" width="19" height="39" stroke="rgb(39,76,114)" />
      <text xml:space="preserve" x="556" y="468" clip-path="url(#clipPath15)" stroke="none">out04</text>
      <rect x="535" y="570" clip-path="url(#clipPath16)" fill="rgb(39,76,114)" width="20" height="40" stroke="none" />
      <rect x="535" y="570" clip-path="url(#clipPath16)" fill="none" width="19" height="39" stroke="rgb(39,76,114)" />
      <text xml:space="preserve" x="556" y="588" clip-path="url(#clipPath17)" stroke="none">out05</text>
      <rect x="535" y="150" clip-path="url(#clipPath18)" fill="rgb(194,239,255)" width="20" height="40" stroke="none" />
      <rect x="535" y="150" clip-path="url(#clipPath18)" fill="none" width="19" height="39" stroke="rgb(194,239,255)" />
      <text xml:space="preserve" x="556" y="168" clip-path="url(#clipPath19)" stroke="none">in01</text>
      <rect x="535" y="270" clip-path="url(#clipPath20)" fill="rgb(194,239,255)" width="20" height="40" stroke="none" />
      <rect x="535" y="270" clip-path="url(#clipPath20)" fill="none" width="19" height="39" stroke="rgb(194,239,255)" />
      <text xml:space="preserve" x="556" y="288" clip-path="url(#clipPath21)" stroke="none">in02</text>
      <rect x="535" y="390" clip-path="url(#clipPath22)" fill="rgb(194,239,255)" width="20" height="40" stroke="none" />
      <rect x="535" y="390" clip-path="url(#clipPath22)" fill="none" width="19" height="39" stroke="rgb(194,239,255)" />
      <text xml:space="preserve" x="556" y="408" clip-path="url(#clipPath23)" stroke="none">in03</text>
      <rect x="535" y="510" clip-path="url(#clipPath24)" fill="rgb(194,239,255)" width="20" height="40" stroke="none" />
      <rect x="535" y="510" clip-path="url(#clipPath24)" fill="none" width="19" height="39" stroke="rgb(194,239,255)" />
      <text xml:space="preserve" x="556" y="528" clip-path="url(#clipPath25)" stroke="none">in04</text>
      <rect x="535" y="630" clip-path="url(#clipPath26)" fill="rgb(194,239,255)" width="20" height="40" stroke="none" />
      <rect x="535" y="630" clip-path="url(#clipPath26)" fill="none" width="19" height="39" stroke="rgb(194,239,255)" />
      <text xml:space="preserve" x="556" y="648" clip-path="url(#clipPath27)" stroke="none">in05</text>
      <line clip-path="url(#clipPath28)" fill="none" x1="535" x2="45" y1="90" y2="90" stroke="rgb(136,136,136)" stroke-width="2.1" />
      <text x="118" y="87" clip-path="url(#clipPath29)" stroke="none" stroke-width="2.1" xml:space="preserve">oeLogin("icrashadmin","7WXC1359")</text>
      <line clip-path="url(#clipPath30)" fill="none" x1="52" x2="45" y1="87" y2="90" stroke="rgb(136,136,136)" stroke-width="2.1" />
      <line clip-path="url(#clipPath30)" fill="none" x1="45" x2="52" y1="90" y2="93" stroke="rgb(136,136,136)" stroke-width="2.1" />
      <line clip-path="url(#clipPath28)" fill="none" x1="535" x2="45" y1="210" y2="210" stroke="rgb(136,136,136)" stroke-width="2.1" />
      <text x="80" y="207" clip-path="url(#clipPath31)" stroke="none" stroke-width="2.1" xml:space="preserve">oeAddCoordinator("1","bob","password","1")</text>
      <line clip-path="url(#clipPath32)" fill="none" x1="52" x2="45" y1="207" y2="210" stroke="rgb(136,136,136)" stroke-width="2.1" />
      <line clip-path="url(#clipPath32)" fill="none" x1="45" x2="52" y1="210" y2="213" stroke="rgb(136,136,136)" stroke-width="2.1" />
      <line clip-path="url(#clipPath28)" fill="none" x1="535" x2="45" y1="330" y2="330" stroke="rgb(136,136,136)" stroke-width="2.1" />
      <text x="90" y="327" clip-path="url(#clipPath33)" stroke="none" stroke-width="2.1" xml:space="preserve">oeUpdateCoordinatorAccessRights("1","2")</text>
      <line clip-path="url(#clipPath34)" fill="none" x1="52" x2="45" y1="327" y2="330" stroke="rgb(136,136,136)" stroke-width="2.1" />
      <line clip-path="url(#clipPath34)" fill="none" x1="45" x2="52" y1="330" y2="333" stroke="rgb(136,136,136)" stroke-width="2.1" />
      <line clip-path="url(#clipPath28)" fill="none" x1="535" x2="45" y1="450" y2="450" stroke="rgb(136,136,136)" stroke-width="2.1" />
      <text x="173" y="447" clip-path="url(#clipPath35)" stroke="none" stroke-width="2.1" xml:space="preserve">oeDeleteCoordinator("1")</text>
      <line clip-path="url(#clipPath36)" fill="none" x1="52" x2="45" y1="447" y2="450" stroke="rgb(136,136,136)" stroke-width="2.1" />
      <line clip-path="url(#clipPath36)" fill="none" x1="45" x2="52" y1="450" y2="453" stroke="rgb(136,136,136)" stroke-width="2.1" />
      <line clip-path="url(#clipPath28)" fill="none" x1="535" x2="45" y1="570" y2="570" stroke="rgb(136,136,136)" stroke-width="2.1" />
      <text x="241" y="567" clip-path="url(#clipPath37)" stroke="none" stroke-width="2.1" xml:space="preserve">oeLogout()</text>
      <line clip-path="url(#clipPath38)" fill="none" x1="52" x2="45" y1="567" y2="570" stroke="rgb(136,136,136)" stroke-width="2.1" />
      <line clip-path="url(#clipPath38)" fill="none" x1="45" x2="52" y1="570" y2="573" stroke="rgb(136,136,136)" stroke-width="2.1" />
    </g>
    <g stroke-linecap="butt" font-size="19" fill="rgb(136,136,136)" stroke-dasharray="5,5" stroke="rgb(136,136,136)" stroke-width="2.1">
      <line clip-path="url(#clipPath28)" fill="none" x1="535" x2="45" y1="150" y2="150" />
      <text x="125" y="147" clip-path="url(#clipPath39)" fill="black" stroke="none" xml:space="preserve">ieLogin(You successfully logged in!)</text>
      <line clip-path="url(#clipPath40)" fill="none" x1="528" x2="535" y1="153" y2="150" stroke-dasharray="none" />
      <line clip-path="url(#clipPath40)" fill="none" x1="535" x2="528" y1="150" y2="147" stroke-dasharray="none" />
      <line clip-path="url(#clipPath28)" fill="none" x1="535" x2="45" y1="270" y2="270" />
      <text x="191" y="267" clip-path="url(#clipPath41)" fill="black" stroke="none" xml:space="preserve">ieCoordinatorAdded()</text>
      <line clip-path="url(#clipPath42)" fill="none" x1="528" x2="535" y1="273" y2="270" stroke-dasharray="none" />
      <line clip-path="url(#clipPath42)" fill="none" x1="535" x2="528" y1="270" y2="267" stroke-dasharray="none" />
      <line clip-path="url(#clipPath28)" fill="none" x1="535" x2="45" y1="390" y2="390" />
      <text x="181" y="387" clip-path="url(#clipPath43)" fill="black" stroke="none" xml:space="preserve">ieCoordinatorUpdated()</text>
      <line clip-path="url(#clipPath44)" fill="none" x1="528" x2="535" y1="393" y2="390" stroke-dasharray="none" />
      <line clip-path="url(#clipPath44)" fill="none" x1="535" x2="528" y1="390" y2="387" stroke-dasharray="none" />
      <line clip-path="url(#clipPath28)" fill="none" x1="535" x2="45" y1="510" y2="510" />
      <text x="185" y="507" clip-path="url(#clipPath45)" fill="black" stroke="none" xml:space="preserve">ieCoordinatorDeleted()</text>
      <line clip-path="url(#clipPath46)" fill="none" x1="528" x2="535" y1="513" y2="510" stroke-dasharray="none" />
      <line clip-path="url(#clipPath46)" fill="none" x1="535" x2="528" y1="510" y2="507" stroke-dasharray="none" />
      <line clip-path="url(#clipPath28)" fill="none" x1="535" x2="45" y1="630" y2="630" />
      <text x="112" y="627" clip-path="url(#clipPath47)" fill="black" stroke="none" xml:space="preserve">ieLogout(You successfully logged out!)</text>
      <line clip-path="url(#clipPath48)" fill="none" x1="528" x2="535" y1="633" y2="630" stroke-dasharray="none" />
      <line clip-path="url(#clipPath48)" fill="none" x1="535" x2="528" y1="630" y2="627" stroke-dasharray="none" />
    </g>
  </g>
</svg>

