<?xml version="1.0" encoding="UTF-8"?>
<svg xmlns="http://www.w3.org/2000/svg" xmlns:xlink="http://www.w3.org/1999/xlink" stroke-dasharray="none" shape-rendering="auto" font-family="'Dialog'" width="642" text-rendering="auto" fill-opacity="1" contentScriptType="text/ecmascript" color-interpolation="auto" color-rendering="auto" preserveAspectRatio="xMidYMid meet" font-size="12" viewBox="0 0 642 696" fill="black" stroke="black" image-rendering="auto" stroke-miterlimit="10" zoomAndPan="magnify" version="1.0" stroke-linecap="square" stroke-linejoin="miter" contentStyleType="text/css" font-style="normal" height="696" stroke-width="1" stroke-dashoffset="0" font-weight="normal" stroke-opacity="1">
  <!--Generated by the Batik Graphics2D SVG Generator-->
  <defs id="genericDefs" />
  <g>
    <defs id="defs1">
      <clipPath clipPathUnits="userSpaceOnUse" id="clipPath1">
        <path d="M9 9 L121 9 L121 44 L9 44 L9 9 Z" />
      </clipPath>
      <clipPath clipPathUnits="userSpaceOnUse" id="clipPath2">
        <path d="M9 9 L126 9 L126 44 L9 44 L9 9 Z" />
      </clipPath>
      <clipPath clipPathUnits="userSpaceOnUse" id="clipPath3">
        <path d="M59 42 L71 42 L71 687 L59 687 L59 42 Z" />
      </clipPath>
      <clipPath clipPathUnits="userSpaceOnUse" id="clipPath4">
        <path d="M449 9 L633 9 L633 68 L449 68 L449 9 Z" />
      </clipPath>
      <clipPath clipPathUnits="userSpaceOnUse" id="clipPath5">
        <path d="M449 9 L638 9 L638 68 L449 68 L449 9 Z" />
      </clipPath>
      <clipPath clipPathUnits="userSpaceOnUse" id="clipPath6">
        <path d="M449 9 L637 9 L637 68 L449 68 L449 9 Z" />
      </clipPath>
      <clipPath clipPathUnits="userSpaceOnUse" id="clipPath7">
        <path d="M535 66 L547 66 L547 687 L535 687 L535 66 Z" />
      </clipPath>
      <clipPath clipPathUnits="userSpaceOnUse" id="clipPath8">
        <path d="M530 86 L552 86 L552 128 L530 128 L530 86 Z" />
      </clipPath>
      <clipPath clipPathUnits="userSpaceOnUse" id="clipPath9">
        <path d="M551 86 L612 86 L612 110 L551 110 L551 86 Z" />
      </clipPath>
      <clipPath clipPathUnits="userSpaceOnUse" id="clipPath10">
        <path d="M530 199 L552 199 L552 241 L530 241 L530 199 Z" />
      </clipPath>
      <clipPath clipPathUnits="userSpaceOnUse" id="clipPath11">
        <path d="M551 199 L612 199 L612 223 L551 223 L551 199 Z" />
      </clipPath>
      <clipPath clipPathUnits="userSpaceOnUse" id="clipPath12">
        <path d="M530 305 L552 305 L552 347 L530 347 L530 305 Z" />
      </clipPath>
      <clipPath clipPathUnits="userSpaceOnUse" id="clipPath13">
        <path d="M551 305 L612 305 L612 329 L551 329 L551 305 Z" />
      </clipPath>
      <clipPath clipPathUnits="userSpaceOnUse" id="clipPath14">
        <path d="M530 476 L552 476 L552 518 L530 518 L530 476 Z" />
      </clipPath>
      <clipPath clipPathUnits="userSpaceOnUse" id="clipPath15">
        <path d="M551 476 L612 476 L612 500 L551 500 L551 476 Z" />
      </clipPath>
      <clipPath clipPathUnits="userSpaceOnUse" id="clipPath16">
        <path d="M530 131 L552 131 L552 173 L530 173 L530 131 Z" />
      </clipPath>
      <clipPath clipPathUnits="userSpaceOnUse" id="clipPath17">
        <path d="M551 131 L599 131 L599 155 L551 155 L551 131 Z" />
      </clipPath>
      <clipPath clipPathUnits="userSpaceOnUse" id="clipPath18">
        <path d="M530 244 L552 244 L552 286 L530 286 L530 244 Z" />
      </clipPath>
      <clipPath clipPathUnits="userSpaceOnUse" id="clipPath19">
        <path d="M551 244 L599 244 L599 268 L551 268 L551 244 Z" />
      </clipPath>
      <clipPath clipPathUnits="userSpaceOnUse" id="clipPath20">
        <path d="M530 350 L552 350 L552 392 L530 392 L530 350 Z" />
      </clipPath>
      <clipPath clipPathUnits="userSpaceOnUse" id="clipPath21">
        <path d="M551 350 L599 350 L599 374 L551 374 L551 350 Z" />
      </clipPath>
      <clipPath clipPathUnits="userSpaceOnUse" id="clipPath22">
        <path d="M530 521 L552 521 L552 563 L530 563 L530 521 Z" />
      </clipPath>
      <clipPath clipPathUnits="userSpaceOnUse" id="clipPath23">
        <path d="M551 521 L599 521 L599 545 L551 545 L551 521 Z" />
      </clipPath>
      <clipPath clipPathUnits="userSpaceOnUse" id="clipPath24">
        <path d="M530 416 L552 416 L552 458 L530 458 L530 416 Z" />
      </clipPath>
      <clipPath clipPathUnits="userSpaceOnUse" id="clipPath25">
        <path d="M551 416 L599 416 L599 440 L551 440 L551 416 Z" />
      </clipPath>
      <clipPath clipPathUnits="userSpaceOnUse" id="clipPath26">
        <path d="M-1 -1 L643 -1 L643 697 L-1 697 L-1 -1 Z" />
      </clipPath>
      <clipPath clipPathUnits="userSpaceOnUse" id="clipPath27">
        <path d="M190 65 L410 65 L410 89 L190 89 L190 65 Z" />
      </clipPath>
      <clipPath clipPathUnits="userSpaceOnUse" id="clipPath28">
        <path d="M63 82 L75 82 L75 93 L63 93 L63 82 Z" />
      </clipPath>
      <clipPath clipPathUnits="userSpaceOnUse" id="clipPath29">
        <path d="M135 178 L466 178 L466 202 L135 202 L135 178 Z" />
      </clipPath>
      <clipPath clipPathUnits="userSpaceOnUse" id="clipPath30">
        <path d="M63 195 L75 195 L75 206 L63 206 L63 195 Z" />
      </clipPath>
      <clipPath clipPathUnits="userSpaceOnUse" id="clipPath31">
        <path d="M186 284 L415 284 L415 308 L186 308 L186 284 Z" />
      </clipPath>
      <clipPath clipPathUnits="userSpaceOnUse" id="clipPath32">
        <path d="M63 301 L75 301 L75 312 L63 312 L63 301 Z" />
      </clipPath>
      <clipPath clipPathUnits="userSpaceOnUse" id="clipPath33">
        <path d="M72 455 L528 455 L528 479 L72 479 L72 455 Z" />
      </clipPath>
      <clipPath clipPathUnits="userSpaceOnUse" id="clipPath34">
        <path d="M63 472 L75 472 L75 483 L63 483 L63 472 Z" />
      </clipPath>
      <clipPath clipPathUnits="userSpaceOnUse" id="clipPath35">
        <path d="M135 110 L466 110 L466 134 L135 134 L135 110 Z" />
      </clipPath>
      <clipPath clipPathUnits="userSpaceOnUse" id="clipPath36">
        <path d="M522 127 L534 127 L534 138 L522 138 L522 127 Z" />
      </clipPath>
      <clipPath clipPathUnits="userSpaceOnUse" id="clipPath37">
        <path d="M135 223 L466 223 L466 247 L135 247 L135 223 Z" />
      </clipPath>
      <clipPath clipPathUnits="userSpaceOnUse" id="clipPath38">
        <path d="M522 240 L534 240 L534 251 L522 251 L522 240 Z" />
      </clipPath>
      <clipPath clipPathUnits="userSpaceOnUse" id="clipPath39">
        <path d="M135 329 L466 329 L466 353 L135 353 L135 329 Z" />
      </clipPath>
      <clipPath clipPathUnits="userSpaceOnUse" id="clipPath40">
        <path d="M522 346 L534 346 L534 357 L522 357 L522 346 Z" />
      </clipPath>
      <clipPath clipPathUnits="userSpaceOnUse" id="clipPath41">
        <path d="M196 500 L405 500 L405 524 L196 524 L196 500 Z" />
      </clipPath>
      <clipPath clipPathUnits="userSpaceOnUse" id="clipPath42">
        <path d="M522 517 L534 517 L534 528 L522 528 L522 517 Z" />
      </clipPath>
      <clipPath clipPathUnits="userSpaceOnUse" id="clipPath43">
        <path d="M129 395 L472 395 L472 419 L129 419 L129 395 Z" />
      </clipPath>
      <clipPath clipPathUnits="userSpaceOnUse" id="clipPath44">
        <path d="M522 412 L534 412 L534 423 L522 423 L522 412 Z" />
      </clipPath>
    </defs>
    <g font-size="16" fill="rgb(238,201,142)" font-family="'Lucida Sans'" stroke-linejoin="round" stroke="rgb(238,201,142)" stroke-width="0" stroke-miterlimit="0">
      <rect x="10" y="10" clip-path="url(#clipPath1)" width="110" height="33" stroke="none" />
    </g>
    <g stroke-width="0.1" font-size="16" font-family="'Lucida Sans'" stroke-linecap="butt">
      <rect x="10" y="10" clip-path="url(#clipPath1)" fill="none" width="109" height="32" />
      <text x="33" font-size="19" y="34" clip-path="url(#clipPath2)" stroke="none" xml:space="preserve">System</text>
      <line clip-path="url(#clipPath3)" fill="none" x1="64" x2="64" y1="43" y2="686" stroke-dasharray="10,10" stroke-width="1.1" />
    </g>
    <g stroke-linecap="butt" font-size="16" fill="rgb(255,245,181)" font-family="'Lucida Sans'" stroke-dasharray="10,10" stroke="rgb(255,245,181)" stroke-width="1.1">
      <rect x="450" y="10" clip-path="url(#clipPath4)" width="182" height="57" stroke="none" />
    </g>
    <g stroke-width="0.1" font-size="16" font-family="'Lucida Sans'" stroke-linecap="butt">
      <rect x="450" y="10" clip-path="url(#clipPath4)" fill="none" width="181" height="56" />
      <text x="523" font-size="19" y="35" clip-path="url(#clipPath5)" stroke="none" xml:space="preserve">bob</text>
      <text x="458" font-size="19" y="57" clip-path="url(#clipPath6)" stroke="none" xml:space="preserve">: actAuthenticated</text>
      <line clip-path="url(#clipPath7)" fill="none" x1="540" x2="540" y1="67" y2="686" stroke-dasharray="10,10" stroke-width="1.1" />
    </g>
    <g stroke-linecap="butt" font-size="16" fill="rgb(39,76,114)" font-family="'Lucida Sans'" stroke-dasharray="10,10" stroke="rgb(39,76,114)" stroke-width="1.1">
      <rect x="531" y="87" clip-path="url(#clipPath8)" width="20" height="40" stroke="none" />
      <rect x="531" y="87" clip-path="url(#clipPath8)" fill="none" width="19" stroke-dasharray="none" height="39" stroke-width="0.1" />
    </g>
    <g stroke-width="0.1" font-size="19" font-family="'Lucida Sans'" stroke-linecap="butt">
      <text xml:space="preserve" x="552" y="106" clip-path="url(#clipPath9)" stroke="none">out01</text>
      <rect x="531" y="200" clip-path="url(#clipPath10)" fill="rgb(39,76,114)" width="20" height="40" stroke="none" />
      <rect x="531" y="200" clip-path="url(#clipPath10)" fill="none" width="19" height="39" stroke="rgb(39,76,114)" />
      <text xml:space="preserve" x="552" y="219" clip-path="url(#clipPath11)" stroke="none">out02</text>
      <rect x="531" y="306" clip-path="url(#clipPath12)" fill="rgb(39,76,114)" width="20" height="40" stroke="none" />
      <rect x="531" y="306" clip-path="url(#clipPath12)" fill="none" width="19" height="39" stroke="rgb(39,76,114)" />
      <text xml:space="preserve" x="552" y="325" clip-path="url(#clipPath13)" stroke="none">out03</text>
      <rect x="531" y="477" clip-path="url(#clipPath14)" fill="rgb(39,76,114)" width="20" height="40" stroke="none" />
      <rect x="531" y="477" clip-path="url(#clipPath14)" fill="none" width="19" height="39" stroke="rgb(39,76,114)" />
      <text xml:space="preserve" x="552" y="496" clip-path="url(#clipPath15)" stroke="none">out04</text>
      <rect x="531" y="132" clip-path="url(#clipPath16)" fill="rgb(194,239,255)" width="20" height="40" stroke="none" />
      <rect x="531" y="132" clip-path="url(#clipPath16)" fill="none" width="19" height="39" stroke="rgb(194,239,255)" />
      <text xml:space="preserve" x="552" y="151" clip-path="url(#clipPath17)" stroke="none">in01</text>
      <rect x="531" y="245" clip-path="url(#clipPath18)" fill="rgb(194,239,255)" width="20" height="40" stroke="none" />
      <rect x="531" y="245" clip-path="url(#clipPath18)" fill="none" width="19" height="39" stroke="rgb(194,239,255)" />
      <text xml:space="preserve" x="552" y="264" clip-path="url(#clipPath19)" stroke="none">in02</text>
      <rect x="531" y="351" clip-path="url(#clipPath20)" fill="rgb(194,239,255)" width="20" height="40" stroke="none" />
      <rect x="531" y="351" clip-path="url(#clipPath20)" fill="none" width="19" height="39" stroke="rgb(194,239,255)" />
      <text xml:space="preserve" x="552" y="370" clip-path="url(#clipPath21)" stroke="none">in03</text>
      <rect x="531" y="522" clip-path="url(#clipPath22)" fill="rgb(194,239,255)" width="20" height="40" stroke="none" />
      <rect x="531" y="522" clip-path="url(#clipPath22)" fill="none" width="19" height="39" stroke="rgb(194,239,255)" />
      <text xml:space="preserve" x="552" y="541" clip-path="url(#clipPath23)" stroke="none">in05</text>
      <rect x="531" y="417" clip-path="url(#clipPath24)" fill="rgb(194,239,255)" width="20" height="40" stroke="none" />
      <rect x="531" y="417" clip-path="url(#clipPath24)" fill="none" width="19" height="39" stroke="rgb(194,239,255)" />
      <text xml:space="preserve" x="552" y="436" clip-path="url(#clipPath25)" stroke="none">in04</text>
      <line clip-path="url(#clipPath26)" fill="none" x1="531" x2="65" y1="87" y2="87" stroke="rgb(136,136,136)" stroke-width="2.1" />
      <text x="191" y="85" clip-path="url(#clipPath27)" stroke="none" stroke-width="2.1" xml:space="preserve">oeLogin("bob","qwertz")</text>
      <line clip-path="url(#clipPath28)" fill="none" x1="72" x2="65" y1="84" y2="87" stroke="rgb(136,136,136)" stroke-width="2.1" />
      <line clip-path="url(#clipPath28)" fill="none" x1="65" x2="72" y1="87" y2="90" stroke="rgb(136,136,136)" stroke-width="2.1" />
      <line clip-path="url(#clipPath26)" fill="none" x1="531" x2="65" y1="200" y2="200" stroke="rgb(136,136,136)" stroke-width="2.1" />
      <text x="136" y="198" clip-path="url(#clipPath29)" stroke="none" stroke-width="2.1" xml:space="preserve">oeLogin("bob","idontknowanymore")</text>
      <line clip-path="url(#clipPath30)" fill="none" x1="72" x2="65" y1="197" y2="200" stroke="rgb(136,136,136)" stroke-width="2.1" />
      <line clip-path="url(#clipPath30)" fill="none" x1="65" x2="72" y1="200" y2="203" stroke="rgb(136,136,136)" stroke-width="2.1" />
      <line clip-path="url(#clipPath26)" fill="none" x1="531" x2="65" y1="306" y2="306" stroke="rgb(136,136,136)" stroke-width="2.1" />
      <text x="187" y="304" clip-path="url(#clipPath31)" stroke="none" stroke-width="2.1" xml:space="preserve">oeLogin("bob","nothing")</text>
      <line clip-path="url(#clipPath32)" fill="none" x1="72" x2="65" y1="303" y2="306" stroke="rgb(136,136,136)" stroke-width="2.1" />
      <line clip-path="url(#clipPath32)" fill="none" x1="65" x2="72" y1="306" y2="309" stroke="rgb(136,136,136)" stroke-width="2.1" />
      <line clip-path="url(#clipPath26)" fill="none" x1="531" x2="65" y1="477" y2="477" stroke="rgb(136,136,136)" stroke-width="2.1" />
      <text x="73" y="475" clip-path="url(#clipPath33)" stroke="none" stroke-width="2.1" xml:space="preserve">oeLoginWithCaptcha("bob","sendhelp","C4p7cha")</text>
      <line clip-path="url(#clipPath34)" fill="none" x1="72" x2="65" y1="474" y2="477" stroke="rgb(136,136,136)" stroke-width="2.1" />
      <line clip-path="url(#clipPath34)" fill="none" x1="65" x2="72" y1="477" y2="480" stroke="rgb(136,136,136)" stroke-width="2.1" />
    </g>
    <g stroke-linecap="butt" font-size="19" fill="rgb(136,136,136)" font-family="'Lucida Sans'" stroke-dasharray="5,5" stroke="rgb(136,136,136)" stroke-width="2.1">
      <line clip-path="url(#clipPath26)" fill="none" x1="531" x2="65" y1="132" y2="132" />
      <text x="136" y="130" clip-path="url(#clipPath35)" fill="black" stroke="none" xml:space="preserve">ieLogin(Wrong Password, try again.)</text>
      <line clip-path="url(#clipPath36)" fill="none" x1="524" x2="531" y1="135" y2="132" stroke-dasharray="none" />
      <line clip-path="url(#clipPath36)" fill="none" x1="531" x2="524" y1="132" y2="129" stroke-dasharray="none" />
      <line clip-path="url(#clipPath26)" fill="none" x1="531" x2="65" y1="245" y2="245" />
      <text x="136" y="243" clip-path="url(#clipPath37)" fill="black" stroke="none" xml:space="preserve">ieLogin(Wrong Password, try again.)</text>
      <line clip-path="url(#clipPath38)" fill="none" x1="524" x2="531" y1="248" y2="245" stroke-dasharray="none" />
      <line clip-path="url(#clipPath38)" fill="none" x1="531" x2="524" y1="245" y2="242" stroke-dasharray="none" />
      <line clip-path="url(#clipPath26)" fill="none" x1="531" x2="65" y1="351" y2="351" />
      <text x="136" y="349" clip-path="url(#clipPath39)" fill="black" stroke="none" xml:space="preserve">ieLogin(Wrong Password, try again.)</text>
      <line clip-path="url(#clipPath40)" fill="none" x1="524" x2="531" y1="354" y2="351" stroke-dasharray="none" />
      <line clip-path="url(#clipPath40)" fill="none" x1="531" x2="524" y1="351" y2="348" stroke-dasharray="none" />
      <line clip-path="url(#clipPath26)" fill="none" x1="531" x2="65" y1="522" y2="522" />
      <text x="197" y="520" clip-path="url(#clipPath41)" fill="black" stroke="none" xml:space="preserve">ieLogin(Welcome bob.)</text>
      <line clip-path="url(#clipPath42)" fill="none" x1="524" x2="531" y1="525" y2="522" stroke-dasharray="none" />
      <line clip-path="url(#clipPath42)" fill="none" x1="531" x2="524" y1="522" y2="519" stroke-dasharray="none" />
      <line clip-path="url(#clipPath26)" fill="none" x1="531" x2="65" y1="417" y2="417" />
      <text x="130" y="415" clip-path="url(#clipPath43)" fill="black" stroke="none" xml:space="preserve">ieLogin(Login with captcha required.)</text>
      <line clip-path="url(#clipPath44)" fill="none" x1="524" x2="531" y1="420" y2="417" stroke-dasharray="none" />
      <line clip-path="url(#clipPath44)" fill="none" x1="531" x2="524" y1="417" y2="414" stroke-dasharray="none" />
    </g>
  </g>
</svg>

