<?xml version="1.0" encoding="UTF-8"?>
<svg xmlns="http://www.w3.org/2000/svg" xmlns:xlink="http://www.w3.org/1999/xlink" stroke-dasharray="none" shape-rendering="auto" font-family="'Dialog'" width="1070" text-rendering="auto" fill-opacity="1" contentScriptType="text/ecmascript" color-interpolation="auto" color-rendering="auto" preserveAspectRatio="xMidYMid meet" font-size="12" viewBox="0 0 1070 970" fill="black" stroke="black" image-rendering="auto" stroke-miterlimit="10" zoomAndPan="magnify" version="1.0" stroke-linecap="square" stroke-linejoin="miter" contentStyleType="text/css" font-style="normal" height="970" stroke-width="1" stroke-dashoffset="0" font-weight="normal" stroke-opacity="1">
  <!--Generated by the Batik Graphics2D SVG Generator-->
  <defs id="genericDefs" />
  <g>
    <defs id="defs1">
      <clipPath clipPathUnits="userSpaceOnUse" id="clipPath1">
        <path d="M94 9 L166 9 L166 41 L94 41 L94 9 Z" />
      </clipPath>
      <clipPath clipPathUnits="userSpaceOnUse" id="clipPath2">
        <path d="M94 9 L171 9 L171 41 L94 41 L94 9 Z" />
      </clipPath>
      <clipPath clipPathUnits="userSpaceOnUse" id="clipPath3">
        <path d="M124 39 L136 39 L136 961 L124 961 L124 39 Z" />
      </clipPath>
      <clipPath clipPathUnits="userSpaceOnUse" id="clipPath4">
        <path d="M501 9 L653 9 L653 61 L501 61 L501 9 Z" />
      </clipPath>
      <clipPath clipPathUnits="userSpaceOnUse" id="clipPath5">
        <path d="M501 9 L657 9 L657 61 L501 61 L501 9 Z" />
      </clipPath>
      <clipPath clipPathUnits="userSpaceOnUse" id="clipPath6">
        <path d="M571 59 L583 59 L583 961 L571 961 L571 59 Z" />
      </clipPath>
      <clipPath clipPathUnits="userSpaceOnUse" id="clipPath7">
        <path d="M566 89 L588 89 L588 131 L566 131 L566 89 Z" />
      </clipPath>
      <clipPath clipPathUnits="userSpaceOnUse" id="clipPath8">
        <path d="M587 89 L648 89 L648 114 L587 114 L587 89 Z" />
      </clipPath>
      <clipPath clipPathUnits="userSpaceOnUse" id="clipPath9">
        <path d="M566 149 L588 149 L588 191 L566 191 L566 149 Z" />
      </clipPath>
      <clipPath clipPathUnits="userSpaceOnUse" id="clipPath10">
        <path d="M587 149 L635 149 L635 174 L587 174 L587 149 Z" />
      </clipPath>
      <clipPath clipPathUnits="userSpaceOnUse" id="clipPath11">
        <path d="M681 9 L833 9 L833 61 L681 61 L681 9 Z" />
      </clipPath>
      <clipPath clipPathUnits="userSpaceOnUse" id="clipPath12">
        <path d="M681 9 L837 9 L837 61 L681 61 L681 9 Z" />
      </clipPath>
      <clipPath clipPathUnits="userSpaceOnUse" id="clipPath13">
        <path d="M751 59 L763 59 L763 961 L751 961 L751 59 Z" />
      </clipPath>
      <clipPath clipPathUnits="userSpaceOnUse" id="clipPath14">
        <path d="M746 209 L768 209 L768 251 L746 251 L746 209 Z" />
      </clipPath>
      <clipPath clipPathUnits="userSpaceOnUse" id="clipPath15">
        <path d="M767 209 L828 209 L828 234 L767 234 L767 209 Z" />
      </clipPath>
      <clipPath clipPathUnits="userSpaceOnUse" id="clipPath16">
        <path d="M746 329 L768 329 L768 371 L746 371 L746 329 Z" />
      </clipPath>
      <clipPath clipPathUnits="userSpaceOnUse" id="clipPath17">
        <path d="M767 329 L828 329 L828 354 L767 354 L767 329 Z" />
      </clipPath>
      <clipPath clipPathUnits="userSpaceOnUse" id="clipPath18">
        <path d="M746 449 L768 449 L768 491 L746 491 L746 449 Z" />
      </clipPath>
      <clipPath clipPathUnits="userSpaceOnUse" id="clipPath19">
        <path d="M767 449 L828 449 L828 474 L767 474 L767 449 Z" />
      </clipPath>
      <clipPath clipPathUnits="userSpaceOnUse" id="clipPath20">
        <path d="M746 689 L768 689 L768 731 L746 731 L746 689 Z" />
      </clipPath>
      <clipPath clipPathUnits="userSpaceOnUse" id="clipPath21">
        <path d="M767 689 L828 689 L828 714 L767 714 L767 689 Z" />
      </clipPath>
      <clipPath clipPathUnits="userSpaceOnUse" id="clipPath22">
        <path d="M746 269 L768 269 L768 311 L746 311 L746 269 Z" />
      </clipPath>
      <clipPath clipPathUnits="userSpaceOnUse" id="clipPath23">
        <path d="M767 269 L815 269 L815 294 L767 294 L767 269 Z" />
      </clipPath>
      <clipPath clipPathUnits="userSpaceOnUse" id="clipPath24">
        <path d="M746 389 L768 389 L768 431 L746 431 L746 389 Z" />
      </clipPath>
      <clipPath clipPathUnits="userSpaceOnUse" id="clipPath25">
        <path d="M767 389 L815 389 L815 414 L767 414 L767 389 Z" />
      </clipPath>
      <clipPath clipPathUnits="userSpaceOnUse" id="clipPath26">
        <path d="M746 509 L768 509 L768 551 L746 551 L746 509 Z" />
      </clipPath>
      <clipPath clipPathUnits="userSpaceOnUse" id="clipPath27">
        <path d="M767 509 L815 509 L815 534 L767 534 L767 509 Z" />
      </clipPath>
      <clipPath clipPathUnits="userSpaceOnUse" id="clipPath28">
        <path d="M746 569 L768 569 L768 611 L746 611 L746 569 Z" />
      </clipPath>
      <clipPath clipPathUnits="userSpaceOnUse" id="clipPath29">
        <path d="M767 569 L815 569 L815 594 L767 594 L767 569 Z" />
      </clipPath>
      <clipPath clipPathUnits="userSpaceOnUse" id="clipPath30">
        <path d="M746 749 L768 749 L768 791 L746 791 L746 749 Z" />
      </clipPath>
      <clipPath clipPathUnits="userSpaceOnUse" id="clipPath31">
        <path d="M767 749 L815 749 L815 774 L767 774 L767 749 Z" />
      </clipPath>
      <clipPath clipPathUnits="userSpaceOnUse" id="clipPath32">
        <path d="M861 9 L1039 9 L1039 61 L861 61 L861 9 Z" />
      </clipPath>
      <clipPath clipPathUnits="userSpaceOnUse" id="clipPath33">
        <path d="M861 9 L1044 9 L1044 61 L861 61 L861 9 Z" />
      </clipPath>
      <clipPath clipPathUnits="userSpaceOnUse" id="clipPath34">
        <path d="M944 59 L956 59 L956 961 L944 961 L944 59 Z" />
      </clipPath>
      <clipPath clipPathUnits="userSpaceOnUse" id="clipPath35">
        <path d="M939 809 L961 809 L961 851 L939 851 L939 809 Z" />
      </clipPath>
      <clipPath clipPathUnits="userSpaceOnUse" id="clipPath36">
        <path d="M960 809 L1021 809 L1021 834 L960 834 L960 809 Z" />
      </clipPath>
      <clipPath clipPathUnits="userSpaceOnUse" id="clipPath37">
        <path d="M939 629 L961 629 L961 671 L939 671 L939 629 Z" />
      </clipPath>
      <clipPath clipPathUnits="userSpaceOnUse" id="clipPath38">
        <path d="M960 629 L1008 629 L1008 654 L960 654 L960 629 Z" />
      </clipPath>
      <clipPath clipPathUnits="userSpaceOnUse" id="clipPath39">
        <path d="M939 869 L961 869 L961 911 L939 911 L939 869 Z" />
      </clipPath>
      <clipPath clipPathUnits="userSpaceOnUse" id="clipPath40">
        <path d="M960 869 L1008 869 L1008 894 L960 894 L960 869 Z" />
      </clipPath>
      <clipPath clipPathUnits="userSpaceOnUse" id="clipPath41">
        <path d="M-1 -1 L1071 -1 L1071 971 L-1 971 L-1 -1 Z" />
      </clipPath>
      <clipPath clipPathUnits="userSpaceOnUse" id="clipPath42">
        <path d="M186 68 L515 68 L515 93 L186 93 L186 68 Z" />
      </clipPath>
      <clipPath clipPathUnits="userSpaceOnUse" id="clipPath43">
        <path d="M128 85 L140 85 L140 96 L128 96 L128 85 Z" />
      </clipPath>
      <clipPath clipPathUnits="userSpaceOnUse" id="clipPath44">
        <path d="M270 188 L611 188 L611 213 L270 213 L270 188 Z" />
      </clipPath>
      <clipPath clipPathUnits="userSpaceOnUse" id="clipPath45">
        <path d="M128 205 L140 205 L140 216 L128 216 L128 205 Z" />
      </clipPath>
      <clipPath clipPathUnits="userSpaceOnUse" id="clipPath46">
        <path d="M197 308 L683 308 L683 333 L197 333 L197 308 Z" />
      </clipPath>
      <clipPath clipPathUnits="userSpaceOnUse" id="clipPath47">
        <path d="M128 325 L140 325 L140 336 L128 336 L128 325 Z" />
      </clipPath>
      <clipPath clipPathUnits="userSpaceOnUse" id="clipPath48">
        <path d="M313 428 L568 428 L568 453 L313 453 L313 428 Z" />
      </clipPath>
      <clipPath clipPathUnits="userSpaceOnUse" id="clipPath49">
        <path d="M128 445 L140 445 L140 456 L128 456 L128 445 Z" />
      </clipPath>
      <clipPath clipPathUnits="userSpaceOnUse" id="clipPath50">
        <path d="M388 668 L493 668 L493 693 L388 693 L388 668 Z" />
      </clipPath>
      <clipPath clipPathUnits="userSpaceOnUse" id="clipPath51">
        <path d="M128 685 L140 685 L140 696 L128 696 L128 685 Z" />
      </clipPath>
      <clipPath clipPathUnits="userSpaceOnUse" id="clipPath52">
        <path d="M23 788 L1051 788 L1051 813 L23 813 L23 788 Z" />
      </clipPath>
      <clipPath clipPathUnits="userSpaceOnUse" id="clipPath53">
        <path d="M128 805 L140 805 L140 816 L128 816 L128 805 Z" />
      </clipPath>
      <clipPath clipPathUnits="userSpaceOnUse" id="clipPath54">
        <path d="M261 128 L440 128 L440 153 L261 153 L261 128 Z" />
      </clipPath>
      <clipPath clipPathUnits="userSpaceOnUse" id="clipPath55">
        <path d="M558 145 L570 145 L570 156 L558 156 L558 145 Z" />
      </clipPath>
      <clipPath clipPathUnits="userSpaceOnUse" id="clipPath56">
        <path d="M232 248 L649 248 L649 273 L232 273 L232 248 Z" />
      </clipPath>
      <clipPath clipPathUnits="userSpaceOnUse" id="clipPath57">
        <path d="M738 265 L750 265 L750 276 L738 276 L738 265 Z" />
      </clipPath>
      <clipPath clipPathUnits="userSpaceOnUse" id="clipPath58">
        <path d="M128 368 L753 368 L753 393 L128 393 L128 368 Z" />
      </clipPath>
      <clipPath clipPathUnits="userSpaceOnUse" id="clipPath59">
        <path d="M738 385 L750 385 L750 396 L738 396 L738 385 Z" />
      </clipPath>
      <clipPath clipPathUnits="userSpaceOnUse" id="clipPath60">
        <path d="M162 488 L718 488 L718 513 L162 513 L162 488 Z" />
      </clipPath>
      <clipPath clipPathUnits="userSpaceOnUse" id="clipPath61">
        <path d="M738 505 L750 505 L750 516 L738 516 L738 505 Z" />
      </clipPath>
      <clipPath clipPathUnits="userSpaceOnUse" id="clipPath62">
        <path d="M116 548 L765 548 L765 573 L116 573 L116 548 Z" />
      </clipPath>
      <clipPath clipPathUnits="userSpaceOnUse" id="clipPath63">
        <path d="M738 565 L750 565 L750 576 L738 576 L738 565 Z" />
      </clipPath>
      <clipPath clipPathUnits="userSpaceOnUse" id="clipPath64">
        <path d="M165 608 L911 608 L911 633 L165 633 L165 608 Z" />
      </clipPath>
      <clipPath clipPathUnits="userSpaceOnUse" id="clipPath65">
        <path d="M931 625 L943 625 L943 636 L931 636 L931 625 Z" />
      </clipPath>
      <clipPath clipPathUnits="userSpaceOnUse" id="clipPath66">
        <path d="M281 728 L599 728 L599 753 L281 753 L281 728 Z" />
      </clipPath>
      <clipPath clipPathUnits="userSpaceOnUse" id="clipPath67">
        <path d="M738 745 L750 745 L750 756 L738 756 L738 745 Z" />
      </clipPath>
      <clipPath clipPathUnits="userSpaceOnUse" id="clipPath68">
        <path d="M299 848 L775 848 L775 873 L299 873 L299 848 Z" />
      </clipPath>
      <clipPath clipPathUnits="userSpaceOnUse" id="clipPath69">
        <path d="M931 865 L943 865 L943 876 L931 876 L931 865 Z" />
      </clipPath>
    </defs>
    <g fill="rgb(238,201,142)" stroke-miterlimit="0" stroke-width="0" stroke="rgb(238,201,142)" stroke-linejoin="round">
      <rect x="95" y="10" clip-path="url(#clipPath1)" width="70" height="30" stroke="none" />
    </g>
    <g stroke-linecap="butt" stroke-width="0.1">
      <rect x="95" y="10" clip-path="url(#clipPath1)" fill="none" width="69" height="29" />
      <text x="95" font-size="19" y="31" clip-path="url(#clipPath2)" stroke="none" xml:space="preserve">System</text>
      <line clip-path="url(#clipPath3)" fill="none" x1="129" x2="129" y1="40" y2="960" stroke-dasharray="10,10" stroke-width="1.1" />
    </g>
    <g fill="rgb(255,245,181)" stroke-dasharray="10,10" stroke-width="1.1" stroke-linecap="butt" stroke="rgb(255,245,181)">
      <rect x="502" y="10" clip-path="url(#clipPath4)" width="150" height="50" stroke="none" />
    </g>
    <g stroke-linecap="butt" stroke-width="0.1">
      <rect x="502" y="10" clip-path="url(#clipPath4)" fill="none" width="149" height="49" />
      <text x="527" font-size="19" y="30" clip-path="url(#clipPath5)" stroke="none" xml:space="preserve">theCreator</text>
      <text x="505" font-size="19" y="53" clip-path="url(#clipPath5)" stroke="none" xml:space="preserve">: actMsrCreator</text>
      <line clip-path="url(#clipPath6)" fill="none" x1="576" x2="576" y1="60" y2="960" stroke-dasharray="10,10" stroke-width="1.1" />
    </g>
    <g fill="rgb(39,76,114)" stroke-dasharray="10,10" stroke-width="1.1" stroke-linecap="butt" stroke="rgb(39,76,114)">
      <rect x="567" y="90" clip-path="url(#clipPath7)" width="20" height="40" stroke="none" />
      <rect x="567" y="90" clip-path="url(#clipPath7)" fill="none" width="19" stroke-dasharray="none" height="39" stroke-width="0.1" />
    </g>
    <g font-size="19" stroke-width="0.1" stroke-linecap="butt">
      <text xml:space="preserve" x="588" y="108" clip-path="url(#clipPath8)" stroke="none">out01</text>
      <rect x="567" y="150" clip-path="url(#clipPath9)" fill="rgb(194,239,255)" width="20" height="40" stroke="none" />
      <rect x="567" y="150" clip-path="url(#clipPath9)" fill="none" width="19" height="39" stroke="rgb(194,239,255)" />
      <text xml:space="preserve" x="588" y="168" clip-path="url(#clipPath10)" stroke="none">in01</text>
      <rect x="682" y="10" clip-path="url(#clipPath11)" fill="rgb(255,245,181)" width="150" height="50" stroke="none" />
      <rect x="682" y="10" clip-path="url(#clipPath11)" fill="none" width="149" height="49" />
      <text xml:space="preserve" x="725" y="30" clip-path="url(#clipPath12)" stroke="none">patrick</text>
      <text xml:space="preserve" x="706" y="53" clip-path="url(#clipPath12)" stroke="none">: actPerson</text>
      <line clip-path="url(#clipPath13)" fill="none" x1="756" x2="756" y1="60" y2="960" stroke-dasharray="10,10" stroke-width="1.1" />
    </g>
    <g fill="rgb(39,76,114)" stroke-dasharray="10,10" stroke-width="1.1" stroke-linecap="butt" stroke="rgb(39,76,114)">
      <rect x="747" y="210" clip-path="url(#clipPath14)" width="20" height="40" stroke="none" />
      <rect x="747" y="210" clip-path="url(#clipPath14)" fill="none" width="19" stroke-dasharray="none" height="39" stroke-width="0.1" />
    </g>
    <g font-size="19" stroke-width="0.1" stroke-linecap="butt">
      <text xml:space="preserve" x="768" y="228" clip-path="url(#clipPath15)" stroke="none">out02</text>
      <rect x="747" y="330" clip-path="url(#clipPath16)" fill="rgb(39,76,114)" width="20" height="40" stroke="none" />
      <rect x="747" y="330" clip-path="url(#clipPath16)" fill="none" width="19" height="39" stroke="rgb(39,76,114)" />
      <text xml:space="preserve" x="768" y="348" clip-path="url(#clipPath17)" stroke="none">out03</text>
      <rect x="747" y="450" clip-path="url(#clipPath18)" fill="rgb(39,76,114)" width="20" height="40" stroke="none" />
      <rect x="747" y="450" clip-path="url(#clipPath18)" fill="none" width="19" height="39" stroke="rgb(39,76,114)" />
      <text xml:space="preserve" x="768" y="468" clip-path="url(#clipPath19)" stroke="none">out04</text>
      <rect x="747" y="690" clip-path="url(#clipPath20)" fill="rgb(39,76,114)" width="20" height="40" stroke="none" />
      <rect x="747" y="690" clip-path="url(#clipPath20)" fill="none" width="19" height="39" stroke="rgb(39,76,114)" />
      <text xml:space="preserve" x="768" y="708" clip-path="url(#clipPath21)" stroke="none">out05</text>
      <rect x="747" y="270" clip-path="url(#clipPath22)" fill="rgb(194,239,255)" width="20" height="40" stroke="none" />
      <rect x="747" y="270" clip-path="url(#clipPath22)" fill="none" width="19" height="39" stroke="rgb(194,239,255)" />
      <text xml:space="preserve" x="768" y="288" clip-path="url(#clipPath23)" stroke="none">in02</text>
      <rect x="747" y="390" clip-path="url(#clipPath24)" fill="rgb(194,239,255)" width="20" height="40" stroke="none" />
      <rect x="747" y="390" clip-path="url(#clipPath24)" fill="none" width="19" height="39" stroke="rgb(194,239,255)" />
      <text xml:space="preserve" x="768" y="408" clip-path="url(#clipPath25)" stroke="none">in03</text>
      <rect x="747" y="510" clip-path="url(#clipPath26)" fill="rgb(194,239,255)" width="20" height="40" stroke="none" />
      <rect x="747" y="510" clip-path="url(#clipPath26)" fill="none" width="19" height="39" stroke="rgb(194,239,255)" />
      <text xml:space="preserve" x="768" y="528" clip-path="url(#clipPath27)" stroke="none">in04</text>
      <rect x="747" y="570" clip-path="url(#clipPath28)" fill="rgb(194,239,255)" width="20" height="40" stroke="none" />
      <rect x="747" y="570" clip-path="url(#clipPath28)" fill="none" width="19" height="39" stroke="rgb(194,239,255)" />
      <text xml:space="preserve" x="768" y="588" clip-path="url(#clipPath29)" stroke="none">in05</text>
      <rect x="747" y="750" clip-path="url(#clipPath30)" fill="rgb(194,239,255)" width="20" height="40" stroke="none" />
      <rect x="747" y="750" clip-path="url(#clipPath30)" fill="none" width="19" height="39" stroke="rgb(194,239,255)" />
      <text xml:space="preserve" x="768" y="768" clip-path="url(#clipPath31)" stroke="none">in07</text>
      <rect x="862" y="10" clip-path="url(#clipPath32)" fill="rgb(255,245,181)" width="176" height="50" stroke="none" />
      <rect x="862" y="10" clip-path="url(#clipPath32)" fill="none" width="175" height="49" />
      <text xml:space="preserve" x="917" y="30" clip-path="url(#clipPath33)" stroke="none">orange</text>
      <text xml:space="preserve" x="865" y="53" clip-path="url(#clipPath33)" stroke="none">: actComCompany</text>
      <line clip-path="url(#clipPath34)" fill="none" x1="949" x2="949" y1="60" y2="960" stroke-dasharray="10,10" stroke-width="1.1" />
    </g>
    <g fill="rgb(39,76,114)" stroke-dasharray="10,10" stroke-width="1.1" stroke-linecap="butt" stroke="rgb(39,76,114)">
      <rect x="940" y="810" clip-path="url(#clipPath35)" width="20" height="40" stroke="none" />
      <rect x="940" y="810" clip-path="url(#clipPath35)" fill="none" width="19" stroke-dasharray="none" height="39" stroke-width="0.1" />
    </g>
    <g font-size="19" stroke-width="0.1" stroke-linecap="butt">
      <text xml:space="preserve" x="961" y="828" clip-path="url(#clipPath36)" stroke="none">out06</text>
      <rect x="940" y="630" clip-path="url(#clipPath37)" fill="rgb(194,239,255)" width="20" height="40" stroke="none" />
      <rect x="940" y="630" clip-path="url(#clipPath37)" fill="none" width="19" height="39" stroke="rgb(194,239,255)" />
      <text xml:space="preserve" x="961" y="648" clip-path="url(#clipPath38)" stroke="none">in06</text>
      <rect x="940" y="870" clip-path="url(#clipPath39)" fill="rgb(194,239,255)" width="20" height="40" stroke="none" />
      <rect x="940" y="870" clip-path="url(#clipPath39)" fill="none" width="19" height="39" stroke="rgb(194,239,255)" />
      <text xml:space="preserve" x="961" y="888" clip-path="url(#clipPath40)" stroke="none">in08</text>
      <line clip-path="url(#clipPath41)" fill="none" x1="567" x2="130" y1="90" y2="90" stroke="rgb(136,136,136)" stroke-width="2.1" />
      <text x="187" y="87" clip-path="url(#clipPath42)" stroke="none" stroke-width="2.1" xml:space="preserve">oeCreateSystemAndEnvironment()</text>
      <line clip-path="url(#clipPath43)" fill="none" x1="137" x2="130" y1="87" y2="90" stroke="rgb(136,136,136)" stroke-width="2.1" />
      <line clip-path="url(#clipPath43)" fill="none" x1="130" x2="137" y1="90" y2="93" stroke="rgb(136,136,136)" stroke-width="2.1" />
      <line clip-path="url(#clipPath41)" fill="none" x1="747" x2="130" y1="210" y2="210" stroke="rgb(136,136,136)" stroke-width="2.1" />
      <text x="271" y="207" clip-path="url(#clipPath44)" stroke="none" stroke-width="2.1" xml:space="preserve">oeLogin("014092450D","6543210")</text>
      <line clip-path="url(#clipPath45)" fill="none" x1="137" x2="130" y1="207" y2="210" stroke="rgb(136,136,136)" stroke-width="2.1" />
      <line clip-path="url(#clipPath45)" fill="none" x1="130" x2="137" y1="210" y2="213" stroke="rgb(136,136,136)" stroke-width="2.1" />
      <line clip-path="url(#clipPath41)" fill="none" x1="747" x2="130" y1="330" y2="330" stroke="rgb(136,136,136)" stroke-width="2.1" />
      <text x="198" y="327" clip-path="url(#clipPath46)" stroke="none" stroke-width="2.1" xml:space="preserve">oeSearchPI("Cactus","Supermarket","Esch/Alzette")</text>
      <line clip-path="url(#clipPath47)" fill="none" x1="137" x2="130" y1="327" y2="330" stroke="rgb(136,136,136)" stroke-width="2.1" />
      <line clip-path="url(#clipPath47)" fill="none" x1="130" x2="137" y1="330" y2="333" stroke="rgb(136,136,136)" stroke-width="2.1" />
      <line clip-path="url(#clipPath41)" fill="none" x1="747" x2="130" y1="450" y2="450" stroke="rgb(136,136,136)" stroke-width="2.1" />
      <text x="314" y="447" clip-path="url(#clipPath48)" stroke="none" stroke-width="2.1" xml:space="preserve">oeGetGPSLocation("1001")</text>
      <line clip-path="url(#clipPath49)" fill="none" x1="137" x2="130" y1="447" y2="450" stroke="rgb(136,136,136)" stroke-width="2.1" />
      <line clip-path="url(#clipPath49)" fill="none" x1="130" x2="137" y1="450" y2="453" stroke="rgb(136,136,136)" stroke-width="2.1" />
      <line clip-path="url(#clipPath41)" fill="none" x1="747" x2="130" y1="690" y2="690" stroke="rgb(136,136,136)" stroke-width="2.1" />
      <text x="389" y="687" clip-path="url(#clipPath50)" stroke="none" stroke-width="2.1" xml:space="preserve">oeLogout()</text>
      <line clip-path="url(#clipPath51)" fill="none" x1="137" x2="130" y1="687" y2="690" stroke="rgb(136,136,136)" stroke-width="2.1" />
      <line clip-path="url(#clipPath51)" fill="none" x1="130" x2="137" y1="690" y2="693" stroke="rgb(136,136,136)" stroke-width="2.1" />
      <line clip-path="url(#clipPath41)" fill="none" x1="940" x2="130" y1="810" y2="810" stroke="rgb(136,136,136)" stroke-width="2.1" />
      <text x="24" y="807" clip-path="url(#clipPath52)" stroke="none" stroke-width="2.1" xml:space="preserve">oeAlert("Witness","Cactus","Esch/Alzette","27/03/2018","10:00","Supermarket on fire!","661777777","High")</text>
      <line clip-path="url(#clipPath53)" fill="none" x1="137" x2="130" y1="807" y2="810" stroke="rgb(136,136,136)" stroke-width="2.1" />
      <line clip-path="url(#clipPath53)" fill="none" x1="130" x2="137" y1="810" y2="813" stroke="rgb(136,136,136)" stroke-width="2.1" />
    </g>
    <g stroke-linecap="butt" font-size="19" fill="rgb(136,136,136)" stroke-dasharray="5,5" stroke="rgb(136,136,136)" stroke-width="2.1">
      <line clip-path="url(#clipPath41)" fill="none" x1="567" x2="130" y1="150" y2="150" />
      <text x="262" y="147" clip-path="url(#clipPath54)" fill="black" stroke="none" xml:space="preserve">ieSystemCreated()</text>
      <line clip-path="url(#clipPath55)" fill="none" x1="560" x2="567" y1="153" y2="150" stroke-dasharray="none" />
      <line clip-path="url(#clipPath55)" fill="none" x1="567" x2="560" y1="150" y2="147" stroke-dasharray="none" />
      <line clip-path="url(#clipPath41)" fill="none" x1="747" x2="130" y1="270" y2="270" />
      <text x="233" y="267" clip-path="url(#clipPath56)" fill="black" stroke="none" xml:space="preserve">ieLoggedIn(You are logged in, 014092450D)</text>
      <line clip-path="url(#clipPath57)" fill="none" x1="740" x2="747" y1="273" y2="270" stroke-dasharray="none" />
      <line clip-path="url(#clipPath57)" fill="none" x1="747" x2="740" y1="270" y2="267" stroke-dasharray="none" />
      <line clip-path="url(#clipPath41)" fill="none" x1="747" x2="130" y1="390" y2="390" />
      <text x="129" y="387" clip-path="url(#clipPath58)" fill="black" stroke="none" xml:space="preserve">ieMessage(The point of interest is in the system. How to proceed?)</text>
      <line clip-path="url(#clipPath59)" fill="none" x1="740" x2="747" y1="393" y2="390" stroke-dasharray="none" />
      <line clip-path="url(#clipPath59)" fill="none" x1="747" x2="740" y1="390" y2="387" stroke-dasharray="none" />
      <line clip-path="url(#clipPath41)" fill="none" x1="747" x2="130" y1="510" y2="510" />
      <text x="163" y="507" clip-path="url(#clipPath60)" fill="black" stroke="none" xml:space="preserve">ieMessage(The GPS location of the PI is: 56.8989/46.7878.)</text>
      <line clip-path="url(#clipPath61)" fill="none" x1="740" x2="747" y1="513" y2="510" stroke-dasharray="none" />
      <line clip-path="url(#clipPath61)" fill="none" x1="747" x2="740" y1="510" y2="507" stroke-dasharray="none" />
      <line clip-path="url(#clipPath41)" fill="none" x1="747" x2="130" y1="570" y2="570" />
      <text x="117" y="567" clip-path="url(#clipPath62)" fill="black" stroke="none" xml:space="preserve">ieMessage(Your Sms has been sent to your communication operator.)</text>
      <line clip-path="url(#clipPath63)" fill="none" x1="740" x2="747" y1="573" y2="570" stroke-dasharray="none" />
      <line clip-path="url(#clipPath63)" fill="none" x1="747" x2="740" y1="570" y2="567" stroke-dasharray="none" />
      <line clip-path="url(#clipPath41)" fill="none" x1="940" x2="130" y1="630" y2="630" />
      <text x="166" y="627" clip-path="url(#clipPath64)" fill="black" stroke="none" xml:space="preserve">ieSmsSend(Cactus,Supermarket,Esch/Alzette,661777777,Supermarket on fire!)</text>
      <line clip-path="url(#clipPath65)" fill="none" x1="933" x2="940" y1="633" y2="630" stroke-dasharray="none" />
      <line clip-path="url(#clipPath65)" fill="none" x1="940" x2="933" y1="630" y2="627" stroke-dasharray="none" />
      <line clip-path="url(#clipPath41)" fill="none" x1="747" x2="130" y1="750" y2="750" />
      <text x="282" y="747" clip-path="url(#clipPath66)" fill="black" stroke="none" xml:space="preserve">ieLoggedOut(You are logged out!)</text>
      <line clip-path="url(#clipPath67)" fill="none" x1="740" x2="747" y1="753" y2="750" stroke-dasharray="none" />
      <line clip-path="url(#clipPath67)" fill="none" x1="747" x2="740" y1="750" y2="747" stroke-dasharray="none" />
      <line clip-path="url(#clipPath41)" fill="none" x1="940" x2="130" y1="870" y2="870" />
      <text x="300" y="867" clip-path="url(#clipPath68)" fill="black" stroke="none" xml:space="preserve">ieMessage(Alert has been sent. It will be handled!)</text>
      <line clip-path="url(#clipPath69)" fill="none" x1="933" x2="940" y1="873" y2="870" stroke-dasharray="none" />
      <line clip-path="url(#clipPath69)" fill="none" x1="940" x2="933" y1="870" y2="867" stroke-dasharray="none" />
    </g>
  </g>
</svg>

