<?xml version="1.0" encoding="UTF-8"?>
<svg xmlns="http://www.w3.org/2000/svg" xmlns:xlink="http://www.w3.org/1999/xlink" stroke-dasharray="none" shape-rendering="auto" font-family="'Dialog'" width="1172" text-rendering="auto" fill-opacity="1" contentScriptType="text/ecmascript" color-interpolation="auto" color-rendering="auto" preserveAspectRatio="xMidYMid meet" font-size="12" viewBox="0 0 1172 970" fill="black" stroke="black" image-rendering="auto" stroke-miterlimit="10" zoomAndPan="magnify" version="1.0" stroke-linecap="square" stroke-linejoin="miter" contentStyleType="text/css" font-style="normal" height="970" stroke-width="1" stroke-dashoffset="0" font-weight="normal" stroke-opacity="1">
  <!--Generated by the Batik Graphics2D SVG Generator-->
  <defs id="genericDefs" />
  <g>
    <defs id="defs1">
      <clipPath clipPathUnits="userSpaceOnUse" id="clipPath1">
        <path d="M9 9 L81 9 L81 41 L9 41 L9 9 Z" />
      </clipPath>
      <clipPath clipPathUnits="userSpaceOnUse" id="clipPath2">
        <path d="M9 9 L86 9 L86 41 L9 41 L9 9 Z" />
      </clipPath>
      <clipPath clipPathUnits="userSpaceOnUse" id="clipPath3">
        <path d="M39 39 L51 39 L51 961 L39 961 L39 39 Z" />
      </clipPath>
      <clipPath clipPathUnits="userSpaceOnUse" id="clipPath4">
        <path d="M665 9 L817 9 L817 61 L665 61 L665 9 Z" />
      </clipPath>
      <clipPath clipPathUnits="userSpaceOnUse" id="clipPath5">
        <path d="M665 9 L821 9 L821 61 L665 61 L665 9 Z" />
      </clipPath>
      <clipPath clipPathUnits="userSpaceOnUse" id="clipPath6">
        <path d="M735 59 L747 59 L747 961 L735 961 L735 59 Z" />
      </clipPath>
      <clipPath clipPathUnits="userSpaceOnUse" id="clipPath7">
        <path d="M730 89 L752 89 L752 131 L730 131 L730 89 Z" />
      </clipPath>
      <clipPath clipPathUnits="userSpaceOnUse" id="clipPath8">
        <path d="M751 89 L812 89 L812 114 L751 114 L751 89 Z" />
      </clipPath>
      <clipPath clipPathUnits="userSpaceOnUse" id="clipPath9">
        <path d="M730 149 L752 149 L752 191 L730 191 L730 149 Z" />
      </clipPath>
      <clipPath clipPathUnits="userSpaceOnUse" id="clipPath10">
        <path d="M751 149 L799 149 L799 174 L751 174 L751 149 Z" />
      </clipPath>
      <clipPath clipPathUnits="userSpaceOnUse" id="clipPath11">
        <path d="M825 9 L977 9 L977 61 L825 61 L825 9 Z" />
      </clipPath>
      <clipPath clipPathUnits="userSpaceOnUse" id="clipPath12">
        <path d="M825 9 L981 9 L981 61 L825 61 L825 9 Z" />
      </clipPath>
      <clipPath clipPathUnits="userSpaceOnUse" id="clipPath13">
        <path d="M895 59 L907 59 L907 961 L895 961 L895 59 Z" />
      </clipPath>
      <clipPath clipPathUnits="userSpaceOnUse" id="clipPath14">
        <path d="M890 209 L912 209 L912 251 L890 251 L890 209 Z" />
      </clipPath>
      <clipPath clipPathUnits="userSpaceOnUse" id="clipPath15">
        <path d="M911 209 L972 209 L972 234 L911 234 L911 209 Z" />
      </clipPath>
      <clipPath clipPathUnits="userSpaceOnUse" id="clipPath16">
        <path d="M890 329 L912 329 L912 371 L890 371 L890 329 Z" />
      </clipPath>
      <clipPath clipPathUnits="userSpaceOnUse" id="clipPath17">
        <path d="M911 329 L972 329 L972 354 L911 354 L911 329 Z" />
      </clipPath>
      <clipPath clipPathUnits="userSpaceOnUse" id="clipPath18">
        <path d="M890 449 L912 449 L912 491 L890 491 L890 449 Z" />
      </clipPath>
      <clipPath clipPathUnits="userSpaceOnUse" id="clipPath19">
        <path d="M911 449 L972 449 L972 474 L911 474 L911 449 Z" />
      </clipPath>
      <clipPath clipPathUnits="userSpaceOnUse" id="clipPath20">
        <path d="M890 689 L912 689 L912 731 L890 731 L890 689 Z" />
      </clipPath>
      <clipPath clipPathUnits="userSpaceOnUse" id="clipPath21">
        <path d="M911 689 L972 689 L972 714 L911 714 L911 689 Z" />
      </clipPath>
      <clipPath clipPathUnits="userSpaceOnUse" id="clipPath22">
        <path d="M890 269 L912 269 L912 311 L890 311 L890 269 Z" />
      </clipPath>
      <clipPath clipPathUnits="userSpaceOnUse" id="clipPath23">
        <path d="M911 269 L959 269 L959 294 L911 294 L911 269 Z" />
      </clipPath>
      <clipPath clipPathUnits="userSpaceOnUse" id="clipPath24">
        <path d="M890 389 L912 389 L912 431 L890 431 L890 389 Z" />
      </clipPath>
      <clipPath clipPathUnits="userSpaceOnUse" id="clipPath25">
        <path d="M911 389 L959 389 L959 414 L911 414 L911 389 Z" />
      </clipPath>
      <clipPath clipPathUnits="userSpaceOnUse" id="clipPath26">
        <path d="M890 509 L912 509 L912 551 L890 551 L890 509 Z" />
      </clipPath>
      <clipPath clipPathUnits="userSpaceOnUse" id="clipPath27">
        <path d="M911 509 L959 509 L959 534 L911 534 L911 509 Z" />
      </clipPath>
      <clipPath clipPathUnits="userSpaceOnUse" id="clipPath28">
        <path d="M890 569 L912 569 L912 611 L890 611 L890 569 Z" />
      </clipPath>
      <clipPath clipPathUnits="userSpaceOnUse" id="clipPath29">
        <path d="M911 569 L959 569 L959 594 L911 594 L911 569 Z" />
      </clipPath>
      <clipPath clipPathUnits="userSpaceOnUse" id="clipPath30">
        <path d="M890 749 L912 749 L912 791 L890 791 L890 749 Z" />
      </clipPath>
      <clipPath clipPathUnits="userSpaceOnUse" id="clipPath31">
        <path d="M911 749 L959 749 L959 774 L911 774 L911 749 Z" />
      </clipPath>
      <clipPath clipPathUnits="userSpaceOnUse" id="clipPath32">
        <path d="M985 9 L1163 9 L1163 61 L985 61 L985 9 Z" />
      </clipPath>
      <clipPath clipPathUnits="userSpaceOnUse" id="clipPath33">
        <path d="M985 9 L1168 9 L1168 61 L985 61 L985 9 Z" />
      </clipPath>
      <clipPath clipPathUnits="userSpaceOnUse" id="clipPath34">
        <path d="M1068 59 L1080 59 L1080 961 L1068 961 L1068 59 Z" />
      </clipPath>
      <clipPath clipPathUnits="userSpaceOnUse" id="clipPath35">
        <path d="M1063 809 L1085 809 L1085 851 L1063 851 L1063 809 Z" />
      </clipPath>
      <clipPath clipPathUnits="userSpaceOnUse" id="clipPath36">
        <path d="M1084 809 L1145 809 L1145 834 L1084 834 L1084 809 Z" />
      </clipPath>
      <clipPath clipPathUnits="userSpaceOnUse" id="clipPath37">
        <path d="M1063 629 L1085 629 L1085 671 L1063 671 L1063 629 Z" />
      </clipPath>
      <clipPath clipPathUnits="userSpaceOnUse" id="clipPath38">
        <path d="M1084 629 L1132 629 L1132 654 L1084 654 L1084 629 Z" />
      </clipPath>
      <clipPath clipPathUnits="userSpaceOnUse" id="clipPath39">
        <path d="M1063 869 L1085 869 L1085 911 L1063 911 L1063 869 Z" />
      </clipPath>
      <clipPath clipPathUnits="userSpaceOnUse" id="clipPath40">
        <path d="M1084 869 L1132 869 L1132 894 L1084 894 L1084 869 Z" />
      </clipPath>
      <clipPath clipPathUnits="userSpaceOnUse" id="clipPath41">
        <path d="M-1 -1 L1173 -1 L1173 971 L-1 971 L-1 -1 Z" />
      </clipPath>
      <clipPath clipPathUnits="userSpaceOnUse" id="clipPath42">
        <path d="M226 68 L555 68 L555 93 L226 93 L226 68 Z" />
      </clipPath>
      <clipPath clipPathUnits="userSpaceOnUse" id="clipPath43">
        <path d="M43 85 L55 85 L55 96 L43 96 L43 85 Z" />
      </clipPath>
      <clipPath clipPathUnits="userSpaceOnUse" id="clipPath44">
        <path d="M300 188 L641 188 L641 213 L300 213 L300 188 Z" />
      </clipPath>
      <clipPath clipPathUnits="userSpaceOnUse" id="clipPath45">
        <path d="M43 205 L55 205 L55 216 L43 216 L43 205 Z" />
      </clipPath>
      <clipPath clipPathUnits="userSpaceOnUse" id="clipPath46">
        <path d="M227 308 L713 308 L713 333 L227 333 L227 308 Z" />
      </clipPath>
      <clipPath clipPathUnits="userSpaceOnUse" id="clipPath47">
        <path d="M43 325 L55 325 L55 336 L43 336 L43 325 Z" />
      </clipPath>
      <clipPath clipPathUnits="userSpaceOnUse" id="clipPath48">
        <path d="M343 428 L598 428 L598 453 L343 453 L343 428 Z" />
      </clipPath>
      <clipPath clipPathUnits="userSpaceOnUse" id="clipPath49">
        <path d="M43 445 L55 445 L55 456 L43 456 L43 445 Z" />
      </clipPath>
      <clipPath clipPathUnits="userSpaceOnUse" id="clipPath50">
        <path d="M418 668 L523 668 L523 693 L418 693 L418 668 Z" />
      </clipPath>
      <clipPath clipPathUnits="userSpaceOnUse" id="clipPath51">
        <path d="M43 685 L55 685 L55 696 L43 696 L43 685 Z" />
      </clipPath>
      <clipPath clipPathUnits="userSpaceOnUse" id="clipPath52">
        <path d="M43 788 L1071 788 L1071 813 L43 813 L43 788 Z" />
      </clipPath>
      <clipPath clipPathUnits="userSpaceOnUse" id="clipPath53">
        <path d="M43 805 L55 805 L55 816 L43 816 L43 805 Z" />
      </clipPath>
      <clipPath clipPathUnits="userSpaceOnUse" id="clipPath54">
        <path d="M301 128 L480 128 L480 153 L301 153 L301 128 Z" />
      </clipPath>
      <clipPath clipPathUnits="userSpaceOnUse" id="clipPath55">
        <path d="M722 145 L734 145 L734 156 L722 156 L722 145 Z" />
      </clipPath>
      <clipPath clipPathUnits="userSpaceOnUse" id="clipPath56">
        <path d="M262 248 L679 248 L679 273 L262 273 L262 248 Z" />
      </clipPath>
      <clipPath clipPathUnits="userSpaceOnUse" id="clipPath57">
        <path d="M882 265 L894 265 L894 276 L882 276 L882 265 Z" />
      </clipPath>
      <clipPath clipPathUnits="userSpaceOnUse" id="clipPath58">
        <path d="M158 368 L783 368 L783 393 L158 393 L158 368 Z" />
      </clipPath>
      <clipPath clipPathUnits="userSpaceOnUse" id="clipPath59">
        <path d="M882 385 L894 385 L894 396 L882 396 L882 385 Z" />
      </clipPath>
      <clipPath clipPathUnits="userSpaceOnUse" id="clipPath60">
        <path d="M192 488 L748 488 L748 513 L192 513 L192 488 Z" />
      </clipPath>
      <clipPath clipPathUnits="userSpaceOnUse" id="clipPath61">
        <path d="M882 505 L894 505 L894 516 L882 516 L882 505 Z" />
      </clipPath>
      <clipPath clipPathUnits="userSpaceOnUse" id="clipPath62">
        <path d="M146 548 L795 548 L795 573 L146 573 L146 548 Z" />
      </clipPath>
      <clipPath clipPathUnits="userSpaceOnUse" id="clipPath63">
        <path d="M882 565 L894 565 L894 576 L882 576 L882 565 Z" />
      </clipPath>
      <clipPath clipPathUnits="userSpaceOnUse" id="clipPath64">
        <path d="M185 608 L931 608 L931 633 L185 633 L185 608 Z" />
      </clipPath>
      <clipPath clipPathUnits="userSpaceOnUse" id="clipPath65">
        <path d="M1055 625 L1067 625 L1067 636 L1055 636 L1055 625 Z" />
      </clipPath>
      <clipPath clipPathUnits="userSpaceOnUse" id="clipPath66">
        <path d="M311 728 L629 728 L629 753 L311 753 L311 728 Z" />
      </clipPath>
      <clipPath clipPathUnits="userSpaceOnUse" id="clipPath67">
        <path d="M882 745 L894 745 L894 756 L882 756 L882 745 Z" />
      </clipPath>
      <clipPath clipPathUnits="userSpaceOnUse" id="clipPath68">
        <path d="M319 848 L795 848 L795 873 L319 873 L319 848 Z" />
      </clipPath>
      <clipPath clipPathUnits="userSpaceOnUse" id="clipPath69">
        <path d="M1055 865 L1067 865 L1067 876 L1055 876 L1055 865 Z" />
      </clipPath>
    </defs>
    <g fill="rgb(238,201,142)" stroke-miterlimit="0" stroke-width="0" stroke="rgb(238,201,142)" stroke-linejoin="round">
      <rect x="10" y="10" clip-path="url(#clipPath1)" width="70" height="30" stroke="none" />
    </g>
    <g stroke-linecap="butt" stroke-width="0.1">
      <rect x="10" y="10" clip-path="url(#clipPath1)" fill="none" width="69" height="29" />
      <text x="10" font-size="19" y="31" clip-path="url(#clipPath2)" stroke="none" xml:space="preserve">System</text>
      <line clip-path="url(#clipPath3)" fill="none" x1="44" x2="44" y1="40" y2="960" stroke-dasharray="10,10" stroke-width="1.1" />
    </g>
    <g fill="rgb(255,245,181)" stroke-dasharray="10,10" stroke-width="1.1" stroke-linecap="butt" stroke="rgb(255,245,181)">
      <rect x="666" y="10" clip-path="url(#clipPath4)" width="150" height="50" stroke="none" />
    </g>
    <g stroke-linecap="butt" stroke-width="0.1">
      <rect x="666" y="10" clip-path="url(#clipPath4)" fill="none" width="149" height="49" />
      <text x="691" font-size="19" y="30" clip-path="url(#clipPath5)" stroke="none" xml:space="preserve">theCreator</text>
      <text x="669" font-size="19" y="53" clip-path="url(#clipPath5)" stroke="none" xml:space="preserve">: actMsrCreator</text>
      <line clip-path="url(#clipPath6)" fill="none" x1="740" x2="740" y1="60" y2="960" stroke-dasharray="10,10" stroke-width="1.1" />
    </g>
    <g fill="rgb(39,76,114)" stroke-dasharray="10,10" stroke-width="1.1" stroke-linecap="butt" stroke="rgb(39,76,114)">
      <rect x="731" y="90" clip-path="url(#clipPath7)" width="20" height="40" stroke="none" />
      <rect x="731" y="90" clip-path="url(#clipPath7)" fill="none" width="19" stroke-dasharray="none" height="39" stroke-width="0.1" />
    </g>
    <g font-size="19" stroke-width="0.1" stroke-linecap="butt">
      <text xml:space="preserve" x="752" y="108" clip-path="url(#clipPath8)" stroke="none">out01</text>
      <rect x="731" y="150" clip-path="url(#clipPath9)" fill="rgb(194,239,255)" width="20" height="40" stroke="none" />
      <rect x="731" y="150" clip-path="url(#clipPath9)" fill="none" width="19" height="39" stroke="rgb(194,239,255)" />
      <text xml:space="preserve" x="752" y="168" clip-path="url(#clipPath10)" stroke="none">in01</text>
      <rect x="826" y="10" clip-path="url(#clipPath11)" fill="rgb(255,245,181)" width="150" height="50" stroke="none" />
      <rect x="826" y="10" clip-path="url(#clipPath11)" fill="none" width="149" height="49" />
      <text xml:space="preserve" x="869" y="30" clip-path="url(#clipPath12)" stroke="none">patrick</text>
      <text xml:space="preserve" x="850" y="53" clip-path="url(#clipPath12)" stroke="none">: actPerson</text>
      <line clip-path="url(#clipPath13)" fill="none" x1="900" x2="900" y1="60" y2="960" stroke-dasharray="10,10" stroke-width="1.1" />
    </g>
    <g fill="rgb(39,76,114)" stroke-dasharray="10,10" stroke-width="1.1" stroke-linecap="butt" stroke="rgb(39,76,114)">
      <rect x="891" y="210" clip-path="url(#clipPath14)" width="20" height="40" stroke="none" />
      <rect x="891" y="210" clip-path="url(#clipPath14)" fill="none" width="19" stroke-dasharray="none" height="39" stroke-width="0.1" />
    </g>
    <g font-size="19" stroke-width="0.1" stroke-linecap="butt">
      <text xml:space="preserve" x="912" y="228" clip-path="url(#clipPath15)" stroke="none">out02</text>
      <rect x="891" y="330" clip-path="url(#clipPath16)" fill="rgb(39,76,114)" width="20" height="40" stroke="none" />
      <rect x="891" y="330" clip-path="url(#clipPath16)" fill="none" width="19" height="39" stroke="rgb(39,76,114)" />
      <text xml:space="preserve" x="912" y="348" clip-path="url(#clipPath17)" stroke="none">out03</text>
      <rect x="891" y="450" clip-path="url(#clipPath18)" fill="rgb(39,76,114)" width="20" height="40" stroke="none" />
      <rect x="891" y="450" clip-path="url(#clipPath18)" fill="none" width="19" height="39" stroke="rgb(39,76,114)" />
      <text xml:space="preserve" x="912" y="468" clip-path="url(#clipPath19)" stroke="none">out04</text>
      <rect x="891" y="690" clip-path="url(#clipPath20)" fill="rgb(39,76,114)" width="20" height="40" stroke="none" />
      <rect x="891" y="690" clip-path="url(#clipPath20)" fill="none" width="19" height="39" stroke="rgb(39,76,114)" />
      <text xml:space="preserve" x="912" y="708" clip-path="url(#clipPath21)" stroke="none">out05</text>
      <rect x="891" y="270" clip-path="url(#clipPath22)" fill="rgb(194,239,255)" width="20" height="40" stroke="none" />
      <rect x="891" y="270" clip-path="url(#clipPath22)" fill="none" width="19" height="39" stroke="rgb(194,239,255)" />
      <text xml:space="preserve" x="912" y="288" clip-path="url(#clipPath23)" stroke="none">in02</text>
      <rect x="891" y="390" clip-path="url(#clipPath24)" fill="rgb(194,239,255)" width="20" height="40" stroke="none" />
      <rect x="891" y="390" clip-path="url(#clipPath24)" fill="none" width="19" height="39" stroke="rgb(194,239,255)" />
      <text xml:space="preserve" x="912" y="408" clip-path="url(#clipPath25)" stroke="none">in03</text>
      <rect x="891" y="510" clip-path="url(#clipPath26)" fill="rgb(194,239,255)" width="20" height="40" stroke="none" />
      <rect x="891" y="510" clip-path="url(#clipPath26)" fill="none" width="19" height="39" stroke="rgb(194,239,255)" />
      <text xml:space="preserve" x="912" y="528" clip-path="url(#clipPath27)" stroke="none">in04</text>
      <rect x="891" y="570" clip-path="url(#clipPath28)" fill="rgb(194,239,255)" width="20" height="40" stroke="none" />
      <rect x="891" y="570" clip-path="url(#clipPath28)" fill="none" width="19" height="39" stroke="rgb(194,239,255)" />
      <text xml:space="preserve" x="912" y="588" clip-path="url(#clipPath29)" stroke="none">in05</text>
      <rect x="891" y="750" clip-path="url(#clipPath30)" fill="rgb(194,239,255)" width="20" height="40" stroke="none" />
      <rect x="891" y="750" clip-path="url(#clipPath30)" fill="none" width="19" height="39" stroke="rgb(194,239,255)" />
      <text xml:space="preserve" x="912" y="768" clip-path="url(#clipPath31)" stroke="none">in07</text>
      <rect x="986" y="10" clip-path="url(#clipPath32)" fill="rgb(255,245,181)" width="176" height="50" stroke="none" />
      <rect x="986" y="10" clip-path="url(#clipPath32)" fill="none" width="175" height="49" />
      <text xml:space="preserve" x="1041" y="30" clip-path="url(#clipPath33)" stroke="none">orange</text>
      <text xml:space="preserve" x="989" y="53" clip-path="url(#clipPath33)" stroke="none">: actComCompany</text>
      <line clip-path="url(#clipPath34)" fill="none" x1="1073" x2="1073" y1="60" y2="960" stroke-dasharray="10,10" stroke-width="1.1" />
    </g>
    <g fill="rgb(39,76,114)" stroke-dasharray="10,10" stroke-width="1.1" stroke-linecap="butt" stroke="rgb(39,76,114)">
      <rect x="1064" y="810" clip-path="url(#clipPath35)" width="20" height="40" stroke="none" />
      <rect x="1064" y="810" clip-path="url(#clipPath35)" fill="none" width="19" stroke-dasharray="none" height="39" stroke-width="0.1" />
    </g>
    <g font-size="19" stroke-width="0.1" stroke-linecap="butt">
      <text xml:space="preserve" x="1085" y="828" clip-path="url(#clipPath36)" stroke="none">out06</text>
      <rect x="1064" y="630" clip-path="url(#clipPath37)" fill="rgb(194,239,255)" width="20" height="40" stroke="none" />
      <rect x="1064" y="630" clip-path="url(#clipPath37)" fill="none" width="19" height="39" stroke="rgb(194,239,255)" />
      <text xml:space="preserve" x="1085" y="648" clip-path="url(#clipPath38)" stroke="none">in06</text>
      <rect x="1064" y="870" clip-path="url(#clipPath39)" fill="rgb(194,239,255)" width="20" height="40" stroke="none" />
      <rect x="1064" y="870" clip-path="url(#clipPath39)" fill="none" width="19" height="39" stroke="rgb(194,239,255)" />
      <text xml:space="preserve" x="1085" y="888" clip-path="url(#clipPath40)" stroke="none">in08</text>
      <line clip-path="url(#clipPath41)" fill="none" x1="731" x2="45" y1="90" y2="90" stroke="rgb(136,136,136)" stroke-width="2.1" />
      <text x="227" y="87" clip-path="url(#clipPath42)" stroke="none" stroke-width="2.1" xml:space="preserve">oeCreateSystemAndEnvironment()</text>
      <line clip-path="url(#clipPath43)" fill="none" x1="52" x2="45" y1="87" y2="90" stroke="rgb(136,136,136)" stroke-width="2.1" />
      <line clip-path="url(#clipPath43)" fill="none" x1="45" x2="52" y1="90" y2="93" stroke="rgb(136,136,136)" stroke-width="2.1" />
      <line clip-path="url(#clipPath41)" fill="none" x1="891" x2="45" y1="210" y2="210" stroke="rgb(136,136,136)" stroke-width="2.1" />
      <text x="301" y="207" clip-path="url(#clipPath44)" stroke="none" stroke-width="2.1" xml:space="preserve">oeLogin("014092450D","6543210")</text>
      <line clip-path="url(#clipPath45)" fill="none" x1="52" x2="45" y1="207" y2="210" stroke="rgb(136,136,136)" stroke-width="2.1" />
      <line clip-path="url(#clipPath45)" fill="none" x1="45" x2="52" y1="210" y2="213" stroke="rgb(136,136,136)" stroke-width="2.1" />
      <line clip-path="url(#clipPath41)" fill="none" x1="891" x2="45" y1="330" y2="330" stroke="rgb(136,136,136)" stroke-width="2.1" />
      <text x="228" y="327" clip-path="url(#clipPath46)" stroke="none" stroke-width="2.1" xml:space="preserve">oeSearchPI("Cactus","Supermarket","Esch/Alzette")</text>
      <line clip-path="url(#clipPath47)" fill="none" x1="52" x2="45" y1="327" y2="330" stroke="rgb(136,136,136)" stroke-width="2.1" />
      <line clip-path="url(#clipPath47)" fill="none" x1="45" x2="52" y1="330" y2="333" stroke="rgb(136,136,136)" stroke-width="2.1" />
      <line clip-path="url(#clipPath41)" fill="none" x1="891" x2="45" y1="450" y2="450" stroke="rgb(136,136,136)" stroke-width="2.1" />
      <text x="344" y="447" clip-path="url(#clipPath48)" stroke="none" stroke-width="2.1" xml:space="preserve">oeGetGPSLocation("1001")</text>
      <line clip-path="url(#clipPath49)" fill="none" x1="52" x2="45" y1="447" y2="450" stroke="rgb(136,136,136)" stroke-width="2.1" />
      <line clip-path="url(#clipPath49)" fill="none" x1="45" x2="52" y1="450" y2="453" stroke="rgb(136,136,136)" stroke-width="2.1" />
      <line clip-path="url(#clipPath41)" fill="none" x1="891" x2="45" y1="690" y2="690" stroke="rgb(136,136,136)" stroke-width="2.1" />
      <text x="419" y="687" clip-path="url(#clipPath50)" stroke="none" stroke-width="2.1" xml:space="preserve">oeLogout()</text>
      <line clip-path="url(#clipPath51)" fill="none" x1="52" x2="45" y1="687" y2="690" stroke="rgb(136,136,136)" stroke-width="2.1" />
      <line clip-path="url(#clipPath51)" fill="none" x1="45" x2="52" y1="690" y2="693" stroke="rgb(136,136,136)" stroke-width="2.1" />
      <line clip-path="url(#clipPath41)" fill="none" x1="1064" x2="45" y1="810" y2="810" stroke="rgb(136,136,136)" stroke-width="2.1" />
      <text x="44" y="807" clip-path="url(#clipPath52)" stroke="none" stroke-width="2.1" xml:space="preserve">oeAlert("Witness","Cactus","Esch/Alzette","27/03/2018","10:00","Supermarket on fire!","661777777","High")</text>
      <line clip-path="url(#clipPath53)" fill="none" x1="52" x2="45" y1="807" y2="810" stroke="rgb(136,136,136)" stroke-width="2.1" />
      <line clip-path="url(#clipPath53)" fill="none" x1="45" x2="52" y1="810" y2="813" stroke="rgb(136,136,136)" stroke-width="2.1" />
    </g>
    <g stroke-linecap="butt" font-size="19" fill="rgb(136,136,136)" stroke-dasharray="5,5" stroke="rgb(136,136,136)" stroke-width="2.1">
      <line clip-path="url(#clipPath41)" fill="none" x1="731" x2="45" y1="150" y2="150" />
      <text x="302" y="147" clip-path="url(#clipPath54)" fill="black" stroke="none" xml:space="preserve">ieSystemCreated()</text>
      <line clip-path="url(#clipPath55)" fill="none" x1="724" x2="731" y1="153" y2="150" stroke-dasharray="none" />
      <line clip-path="url(#clipPath55)" fill="none" x1="731" x2="724" y1="150" y2="147" stroke-dasharray="none" />
      <line clip-path="url(#clipPath41)" fill="none" x1="891" x2="45" y1="270" y2="270" />
      <text x="263" y="267" clip-path="url(#clipPath56)" fill="black" stroke="none" xml:space="preserve">ieLoggedIn(You are logged in, 014092450D)</text>
      <line clip-path="url(#clipPath57)" fill="none" x1="884" x2="891" y1="273" y2="270" stroke-dasharray="none" />
      <line clip-path="url(#clipPath57)" fill="none" x1="891" x2="884" y1="270" y2="267" stroke-dasharray="none" />
      <line clip-path="url(#clipPath41)" fill="none" x1="891" x2="45" y1="390" y2="390" />
      <text x="159" y="387" clip-path="url(#clipPath58)" fill="black" stroke="none" xml:space="preserve">ieMessage(The point of interest is in the system. How to proceed?)</text>
      <line clip-path="url(#clipPath59)" fill="none" x1="884" x2="891" y1="393" y2="390" stroke-dasharray="none" />
      <line clip-path="url(#clipPath59)" fill="none" x1="891" x2="884" y1="390" y2="387" stroke-dasharray="none" />
      <line clip-path="url(#clipPath41)" fill="none" x1="891" x2="45" y1="510" y2="510" />
      <text x="193" y="507" clip-path="url(#clipPath60)" fill="black" stroke="none" xml:space="preserve">ieMessage(The GPS location of the PI is: 56.8989/46.7878.)</text>
      <line clip-path="url(#clipPath61)" fill="none" x1="884" x2="891" y1="513" y2="510" stroke-dasharray="none" />
      <line clip-path="url(#clipPath61)" fill="none" x1="891" x2="884" y1="510" y2="507" stroke-dasharray="none" />
      <line clip-path="url(#clipPath41)" fill="none" x1="891" x2="45" y1="570" y2="570" />
      <text x="147" y="567" clip-path="url(#clipPath62)" fill="black" stroke="none" xml:space="preserve">ieMessage(Your Sms has been sent to your communication operator.)</text>
      <line clip-path="url(#clipPath63)" fill="none" x1="884" x2="891" y1="573" y2="570" stroke-dasharray="none" />
      <line clip-path="url(#clipPath63)" fill="none" x1="891" x2="884" y1="570" y2="567" stroke-dasharray="none" />
      <line clip-path="url(#clipPath41)" fill="none" x1="1064" x2="45" y1="630" y2="630" />
      <text x="186" y="627" clip-path="url(#clipPath64)" fill="black" stroke="none" xml:space="preserve">ieSmsSend(Cactus,Supermarket,Esch/Alzette,661777777,Supermarket on fire!)</text>
      <line clip-path="url(#clipPath65)" fill="none" x1="1057" x2="1064" y1="633" y2="630" stroke-dasharray="none" />
      <line clip-path="url(#clipPath65)" fill="none" x1="1064" x2="1057" y1="630" y2="627" stroke-dasharray="none" />
      <line clip-path="url(#clipPath41)" fill="none" x1="891" x2="45" y1="750" y2="750" />
      <text x="312" y="747" clip-path="url(#clipPath66)" fill="black" stroke="none" xml:space="preserve">ieLoggedOut(You are logged out!)</text>
      <line clip-path="url(#clipPath67)" fill="none" x1="884" x2="891" y1="753" y2="750" stroke-dasharray="none" />
      <line clip-path="url(#clipPath67)" fill="none" x1="891" x2="884" y1="750" y2="747" stroke-dasharray="none" />
      <line clip-path="url(#clipPath41)" fill="none" x1="1064" x2="45" y1="870" y2="870" />
      <text x="320" y="867" clip-path="url(#clipPath68)" fill="black" stroke="none" xml:space="preserve">ieMessage(Alert has been sent. It will be handled!)</text>
      <line clip-path="url(#clipPath69)" fill="none" x1="1057" x2="1064" y1="873" y2="870" stroke-dasharray="none" />
      <line clip-path="url(#clipPath69)" fill="none" x1="1064" x2="1057" y1="870" y2="867" stroke-dasharray="none" />
    </g>
  </g>
</svg>

