<?xml version="1.0" encoding="UTF-8"?>
<svg xmlns="http://www.w3.org/2000/svg" xmlns:xlink="http://www.w3.org/1999/xlink" stroke-dasharray="none" shape-rendering="auto" font-family="'Dialog'" width="1202" text-rendering="auto" fill-opacity="1" contentScriptType="text/ecmascript" color-interpolation="auto" color-rendering="auto" preserveAspectRatio="xMidYMid meet" font-size="12" viewBox="0 0 1202 970" fill="black" stroke="black" image-rendering="auto" stroke-miterlimit="10" zoomAndPan="magnify" version="1.0" stroke-linecap="square" stroke-linejoin="miter" contentStyleType="text/css" font-style="normal" height="970" stroke-width="1" stroke-dashoffset="0" font-weight="normal" stroke-opacity="1">
  <!--Generated by the Batik Graphics2D SVG Generator-->
  <defs id="genericDefs" />
  <g>
    <defs id="defs1">
      <clipPath clipPathUnits="userSpaceOnUse" id="clipPath1">
        <path d="M9 9 L81 9 L81 41 L9 41 L9 9 Z" />
      </clipPath>
      <clipPath clipPathUnits="userSpaceOnUse" id="clipPath2">
        <path d="M9 9 L86 9 L86 41 L9 41 L9 9 Z" />
      </clipPath>
      <clipPath clipPathUnits="userSpaceOnUse" id="clipPath3">
        <path d="M39 39 L51 39 L51 961 L39 961 L39 39 Z" />
      </clipPath>
      <clipPath clipPathUnits="userSpaceOnUse" id="clipPath4">
        <path d="M695 9 L847 9 L847 61 L695 61 L695 9 Z" />
      </clipPath>
      <clipPath clipPathUnits="userSpaceOnUse" id="clipPath5">
        <path d="M695 9 L851 9 L851 61 L695 61 L695 9 Z" />
      </clipPath>
      <clipPath clipPathUnits="userSpaceOnUse" id="clipPath6">
        <path d="M765 59 L777 59 L777 961 L765 961 L765 59 Z" />
      </clipPath>
      <clipPath clipPathUnits="userSpaceOnUse" id="clipPath7">
        <path d="M760 89 L782 89 L782 131 L760 131 L760 89 Z" />
      </clipPath>
      <clipPath clipPathUnits="userSpaceOnUse" id="clipPath8">
        <path d="M781 89 L842 89 L842 114 L781 114 L781 89 Z" />
      </clipPath>
      <clipPath clipPathUnits="userSpaceOnUse" id="clipPath9">
        <path d="M760 149 L782 149 L782 191 L760 191 L760 149 Z" />
      </clipPath>
      <clipPath clipPathUnits="userSpaceOnUse" id="clipPath10">
        <path d="M781 149 L829 149 L829 174 L781 174 L781 149 Z" />
      </clipPath>
      <clipPath clipPathUnits="userSpaceOnUse" id="clipPath11">
        <path d="M855 9 L1007 9 L1007 61 L855 61 L855 9 Z" />
      </clipPath>
      <clipPath clipPathUnits="userSpaceOnUse" id="clipPath12">
        <path d="M855 9 L1011 9 L1011 61 L855 61 L855 9 Z" />
      </clipPath>
      <clipPath clipPathUnits="userSpaceOnUse" id="clipPath13">
        <path d="M925 59 L937 59 L937 961 L925 961 L925 59 Z" />
      </clipPath>
      <clipPath clipPathUnits="userSpaceOnUse" id="clipPath14">
        <path d="M920 209 L942 209 L942 251 L920 251 L920 209 Z" />
      </clipPath>
      <clipPath clipPathUnits="userSpaceOnUse" id="clipPath15">
        <path d="M941 209 L1002 209 L1002 234 L941 234 L941 209 Z" />
      </clipPath>
      <clipPath clipPathUnits="userSpaceOnUse" id="clipPath16">
        <path d="M920 329 L942 329 L942 371 L920 371 L920 329 Z" />
      </clipPath>
      <clipPath clipPathUnits="userSpaceOnUse" id="clipPath17">
        <path d="M941 329 L1002 329 L1002 354 L941 354 L941 329 Z" />
      </clipPath>
      <clipPath clipPathUnits="userSpaceOnUse" id="clipPath18">
        <path d="M920 449 L942 449 L942 491 L920 491 L920 449 Z" />
      </clipPath>
      <clipPath clipPathUnits="userSpaceOnUse" id="clipPath19">
        <path d="M941 449 L1002 449 L1002 474 L941 474 L941 449 Z" />
      </clipPath>
      <clipPath clipPathUnits="userSpaceOnUse" id="clipPath20">
        <path d="M920 689 L942 689 L942 731 L920 731 L920 689 Z" />
      </clipPath>
      <clipPath clipPathUnits="userSpaceOnUse" id="clipPath21">
        <path d="M941 689 L1002 689 L1002 714 L941 714 L941 689 Z" />
      </clipPath>
      <clipPath clipPathUnits="userSpaceOnUse" id="clipPath22">
        <path d="M920 269 L942 269 L942 311 L920 311 L920 269 Z" />
      </clipPath>
      <clipPath clipPathUnits="userSpaceOnUse" id="clipPath23">
        <path d="M941 269 L989 269 L989 294 L941 294 L941 269 Z" />
      </clipPath>
      <clipPath clipPathUnits="userSpaceOnUse" id="clipPath24">
        <path d="M920 389 L942 389 L942 431 L920 431 L920 389 Z" />
      </clipPath>
      <clipPath clipPathUnits="userSpaceOnUse" id="clipPath25">
        <path d="M941 389 L989 389 L989 414 L941 414 L941 389 Z" />
      </clipPath>
      <clipPath clipPathUnits="userSpaceOnUse" id="clipPath26">
        <path d="M920 509 L942 509 L942 551 L920 551 L920 509 Z" />
      </clipPath>
      <clipPath clipPathUnits="userSpaceOnUse" id="clipPath27">
        <path d="M941 509 L989 509 L989 534 L941 534 L941 509 Z" />
      </clipPath>
      <clipPath clipPathUnits="userSpaceOnUse" id="clipPath28">
        <path d="M920 569 L942 569 L942 611 L920 611 L920 569 Z" />
      </clipPath>
      <clipPath clipPathUnits="userSpaceOnUse" id="clipPath29">
        <path d="M941 569 L989 569 L989 594 L941 594 L941 569 Z" />
      </clipPath>
      <clipPath clipPathUnits="userSpaceOnUse" id="clipPath30">
        <path d="M920 749 L942 749 L942 791 L920 791 L920 749 Z" />
      </clipPath>
      <clipPath clipPathUnits="userSpaceOnUse" id="clipPath31">
        <path d="M941 749 L989 749 L989 774 L941 774 L941 749 Z" />
      </clipPath>
      <clipPath clipPathUnits="userSpaceOnUse" id="clipPath32">
        <path d="M1015 9 L1193 9 L1193 61 L1015 61 L1015 9 Z" />
      </clipPath>
      <clipPath clipPathUnits="userSpaceOnUse" id="clipPath33">
        <path d="M1015 9 L1198 9 L1198 61 L1015 61 L1015 9 Z" />
      </clipPath>
      <clipPath clipPathUnits="userSpaceOnUse" id="clipPath34">
        <path d="M1098 59 L1110 59 L1110 961 L1098 961 L1098 59 Z" />
      </clipPath>
      <clipPath clipPathUnits="userSpaceOnUse" id="clipPath35">
        <path d="M1093 809 L1115 809 L1115 851 L1093 851 L1093 809 Z" />
      </clipPath>
      <clipPath clipPathUnits="userSpaceOnUse" id="clipPath36">
        <path d="M1114 809 L1175 809 L1175 834 L1114 834 L1114 809 Z" />
      </clipPath>
      <clipPath clipPathUnits="userSpaceOnUse" id="clipPath37">
        <path d="M1093 629 L1115 629 L1115 671 L1093 671 L1093 629 Z" />
      </clipPath>
      <clipPath clipPathUnits="userSpaceOnUse" id="clipPath38">
        <path d="M1114 629 L1162 629 L1162 654 L1114 654 L1114 629 Z" />
      </clipPath>
      <clipPath clipPathUnits="userSpaceOnUse" id="clipPath39">
        <path d="M1093 869 L1115 869 L1115 911 L1093 911 L1093 869 Z" />
      </clipPath>
      <clipPath clipPathUnits="userSpaceOnUse" id="clipPath40">
        <path d="M1114 869 L1162 869 L1162 894 L1114 894 L1114 869 Z" />
      </clipPath>
      <clipPath clipPathUnits="userSpaceOnUse" id="clipPath41">
        <path d="M-1 -1 L1203 -1 L1203 971 L-1 971 L-1 -1 Z" />
      </clipPath>
      <clipPath clipPathUnits="userSpaceOnUse" id="clipPath42">
        <path d="M241 68 L570 68 L570 93 L241 93 L241 68 Z" />
      </clipPath>
      <clipPath clipPathUnits="userSpaceOnUse" id="clipPath43">
        <path d="M43 85 L55 85 L55 96 L43 96 L43 85 Z" />
      </clipPath>
      <clipPath clipPathUnits="userSpaceOnUse" id="clipPath44">
        <path d="M315 188 L656 188 L656 213 L315 213 L315 188 Z" />
      </clipPath>
      <clipPath clipPathUnits="userSpaceOnUse" id="clipPath45">
        <path d="M43 205 L55 205 L55 216 L43 216 L43 205 Z" />
      </clipPath>
      <clipPath clipPathUnits="userSpaceOnUse" id="clipPath46">
        <path d="M242 308 L728 308 L728 333 L242 333 L242 308 Z" />
      </clipPath>
      <clipPath clipPathUnits="userSpaceOnUse" id="clipPath47">
        <path d="M43 325 L55 325 L55 336 L43 336 L43 325 Z" />
      </clipPath>
      <clipPath clipPathUnits="userSpaceOnUse" id="clipPath48">
        <path d="M358 428 L613 428 L613 453 L358 453 L358 428 Z" />
      </clipPath>
      <clipPath clipPathUnits="userSpaceOnUse" id="clipPath49">
        <path d="M43 445 L55 445 L55 456 L43 456 L43 445 Z" />
      </clipPath>
      <clipPath clipPathUnits="userSpaceOnUse" id="clipPath50">
        <path d="M433 668 L538 668 L538 693 L433 693 L433 668 Z" />
      </clipPath>
      <clipPath clipPathUnits="userSpaceOnUse" id="clipPath51">
        <path d="M43 685 L55 685 L55 696 L43 696 L43 685 Z" />
      </clipPath>
      <clipPath clipPathUnits="userSpaceOnUse" id="clipPath52">
        <path d="M57 788 L1085 788 L1085 813 L57 813 L57 788 Z" />
      </clipPath>
      <clipPath clipPathUnits="userSpaceOnUse" id="clipPath53">
        <path d="M43 805 L55 805 L55 816 L43 816 L43 805 Z" />
      </clipPath>
      <clipPath clipPathUnits="userSpaceOnUse" id="clipPath54">
        <path d="M316 128 L495 128 L495 153 L316 153 L316 128 Z" />
      </clipPath>
      <clipPath clipPathUnits="userSpaceOnUse" id="clipPath55">
        <path d="M752 145 L764 145 L764 156 L752 156 L752 145 Z" />
      </clipPath>
      <clipPath clipPathUnits="userSpaceOnUse" id="clipPath56">
        <path d="M277 248 L694 248 L694 273 L277 273 L277 248 Z" />
      </clipPath>
      <clipPath clipPathUnits="userSpaceOnUse" id="clipPath57">
        <path d="M912 265 L924 265 L924 276 L912 276 L912 265 Z" />
      </clipPath>
      <clipPath clipPathUnits="userSpaceOnUse" id="clipPath58">
        <path d="M173 368 L798 368 L798 393 L173 393 L173 368 Z" />
      </clipPath>
      <clipPath clipPathUnits="userSpaceOnUse" id="clipPath59">
        <path d="M912 385 L924 385 L924 396 L912 396 L912 385 Z" />
      </clipPath>
      <clipPath clipPathUnits="userSpaceOnUse" id="clipPath60">
        <path d="M207 488 L763 488 L763 513 L207 513 L207 488 Z" />
      </clipPath>
      <clipPath clipPathUnits="userSpaceOnUse" id="clipPath61">
        <path d="M912 505 L924 505 L924 516 L912 516 L912 505 Z" />
      </clipPath>
      <clipPath clipPathUnits="userSpaceOnUse" id="clipPath62">
        <path d="M161 548 L810 548 L810 573 L161 573 L161 548 Z" />
      </clipPath>
      <clipPath clipPathUnits="userSpaceOnUse" id="clipPath63">
        <path d="M912 565 L924 565 L924 576 L912 576 L912 565 Z" />
      </clipPath>
      <clipPath clipPathUnits="userSpaceOnUse" id="clipPath64">
        <path d="M199 608 L945 608 L945 633 L199 633 L199 608 Z" />
      </clipPath>
      <clipPath clipPathUnits="userSpaceOnUse" id="clipPath65">
        <path d="M1085 625 L1097 625 L1097 636 L1085 636 L1085 625 Z" />
      </clipPath>
      <clipPath clipPathUnits="userSpaceOnUse" id="clipPath66">
        <path d="M326 728 L644 728 L644 753 L326 753 L326 728 Z" />
      </clipPath>
      <clipPath clipPathUnits="userSpaceOnUse" id="clipPath67">
        <path d="M912 745 L924 745 L924 756 L912 756 L912 745 Z" />
      </clipPath>
      <clipPath clipPathUnits="userSpaceOnUse" id="clipPath68">
        <path d="M333 848 L809 848 L809 873 L333 873 L333 848 Z" />
      </clipPath>
      <clipPath clipPathUnits="userSpaceOnUse" id="clipPath69">
        <path d="M1085 865 L1097 865 L1097 876 L1085 876 L1085 865 Z" />
      </clipPath>
    </defs>
    <g fill="rgb(238,201,142)" stroke-miterlimit="0" stroke-width="0" stroke="rgb(238,201,142)" stroke-linejoin="round">
      <rect x="10" y="10" clip-path="url(#clipPath1)" width="70" height="30" stroke="none" />
    </g>
    <g stroke-linecap="butt" stroke-width="0.1">
      <rect x="10" y="10" clip-path="url(#clipPath1)" fill="none" width="69" height="29" />
      <text x="10" font-size="19" y="31" clip-path="url(#clipPath2)" stroke="none" xml:space="preserve">System</text>
      <line clip-path="url(#clipPath3)" fill="none" x1="44" x2="44" y1="40" y2="960" stroke-dasharray="10,10" stroke-width="1.1" />
    </g>
    <g fill="rgb(255,245,181)" stroke-dasharray="10,10" stroke-width="1.1" stroke-linecap="butt" stroke="rgb(255,245,181)">
      <rect x="696" y="10" clip-path="url(#clipPath4)" width="150" height="50" stroke="none" />
    </g>
    <g stroke-linecap="butt" stroke-width="0.1">
      <rect x="696" y="10" clip-path="url(#clipPath4)" fill="none" width="149" height="49" />
      <text x="721" font-size="19" y="30" clip-path="url(#clipPath5)" stroke="none" xml:space="preserve">theCreator</text>
      <text x="699" font-size="19" y="53" clip-path="url(#clipPath5)" stroke="none" xml:space="preserve">: actMsrCreator</text>
      <line clip-path="url(#clipPath6)" fill="none" x1="770" x2="770" y1="60" y2="960" stroke-dasharray="10,10" stroke-width="1.1" />
    </g>
    <g fill="rgb(39,76,114)" stroke-dasharray="10,10" stroke-width="1.1" stroke-linecap="butt" stroke="rgb(39,76,114)">
      <rect x="761" y="90" clip-path="url(#clipPath7)" width="20" height="40" stroke="none" />
      <rect x="761" y="90" clip-path="url(#clipPath7)" fill="none" width="19" stroke-dasharray="none" height="39" stroke-width="0.1" />
    </g>
    <g font-size="19" stroke-width="0.1" stroke-linecap="butt">
      <text xml:space="preserve" x="782" y="108" clip-path="url(#clipPath8)" stroke="none">out01</text>
      <rect x="761" y="150" clip-path="url(#clipPath9)" fill="rgb(194,239,255)" width="20" height="40" stroke="none" />
      <rect x="761" y="150" clip-path="url(#clipPath9)" fill="none" width="19" height="39" stroke="rgb(194,239,255)" />
      <text xml:space="preserve" x="782" y="168" clip-path="url(#clipPath10)" stroke="none">in01</text>
      <rect x="856" y="10" clip-path="url(#clipPath11)" fill="rgb(255,245,181)" width="150" height="50" stroke="none" />
      <rect x="856" y="10" clip-path="url(#clipPath11)" fill="none" width="149" height="49" />
      <text xml:space="preserve" x="899" y="30" clip-path="url(#clipPath12)" stroke="none">patrick</text>
      <text xml:space="preserve" x="880" y="53" clip-path="url(#clipPath12)" stroke="none">: actPerson</text>
      <line clip-path="url(#clipPath13)" fill="none" x1="930" x2="930" y1="60" y2="960" stroke-dasharray="10,10" stroke-width="1.1" />
    </g>
    <g fill="rgb(39,76,114)" stroke-dasharray="10,10" stroke-width="1.1" stroke-linecap="butt" stroke="rgb(39,76,114)">
      <rect x="921" y="210" clip-path="url(#clipPath14)" width="20" height="40" stroke="none" />
      <rect x="921" y="210" clip-path="url(#clipPath14)" fill="none" width="19" stroke-dasharray="none" height="39" stroke-width="0.1" />
    </g>
    <g font-size="19" stroke-width="0.1" stroke-linecap="butt">
      <text xml:space="preserve" x="942" y="228" clip-path="url(#clipPath15)" stroke="none">out02</text>
      <rect x="921" y="330" clip-path="url(#clipPath16)" fill="rgb(39,76,114)" width="20" height="40" stroke="none" />
      <rect x="921" y="330" clip-path="url(#clipPath16)" fill="none" width="19" height="39" stroke="rgb(39,76,114)" />
      <text xml:space="preserve" x="942" y="348" clip-path="url(#clipPath17)" stroke="none">out03</text>
      <rect x="921" y="450" clip-path="url(#clipPath18)" fill="rgb(39,76,114)" width="20" height="40" stroke="none" />
      <rect x="921" y="450" clip-path="url(#clipPath18)" fill="none" width="19" height="39" stroke="rgb(39,76,114)" />
      <text xml:space="preserve" x="942" y="468" clip-path="url(#clipPath19)" stroke="none">out04</text>
      <rect x="921" y="690" clip-path="url(#clipPath20)" fill="rgb(39,76,114)" width="20" height="40" stroke="none" />
      <rect x="921" y="690" clip-path="url(#clipPath20)" fill="none" width="19" height="39" stroke="rgb(39,76,114)" />
      <text xml:space="preserve" x="942" y="708" clip-path="url(#clipPath21)" stroke="none">out05</text>
      <rect x="921" y="270" clip-path="url(#clipPath22)" fill="rgb(194,239,255)" width="20" height="40" stroke="none" />
      <rect x="921" y="270" clip-path="url(#clipPath22)" fill="none" width="19" height="39" stroke="rgb(194,239,255)" />
      <text xml:space="preserve" x="942" y="288" clip-path="url(#clipPath23)" stroke="none">in02</text>
      <rect x="921" y="390" clip-path="url(#clipPath24)" fill="rgb(194,239,255)" width="20" height="40" stroke="none" />
      <rect x="921" y="390" clip-path="url(#clipPath24)" fill="none" width="19" height="39" stroke="rgb(194,239,255)" />
      <text xml:space="preserve" x="942" y="408" clip-path="url(#clipPath25)" stroke="none">in03</text>
      <rect x="921" y="510" clip-path="url(#clipPath26)" fill="rgb(194,239,255)" width="20" height="40" stroke="none" />
      <rect x="921" y="510" clip-path="url(#clipPath26)" fill="none" width="19" height="39" stroke="rgb(194,239,255)" />
      <text xml:space="preserve" x="942" y="528" clip-path="url(#clipPath27)" stroke="none">in04</text>
      <rect x="921" y="570" clip-path="url(#clipPath28)" fill="rgb(194,239,255)" width="20" height="40" stroke="none" />
      <rect x="921" y="570" clip-path="url(#clipPath28)" fill="none" width="19" height="39" stroke="rgb(194,239,255)" />
      <text xml:space="preserve" x="942" y="588" clip-path="url(#clipPath29)" stroke="none">in05</text>
      <rect x="921" y="750" clip-path="url(#clipPath30)" fill="rgb(194,239,255)" width="20" height="40" stroke="none" />
      <rect x="921" y="750" clip-path="url(#clipPath30)" fill="none" width="19" height="39" stroke="rgb(194,239,255)" />
      <text xml:space="preserve" x="942" y="768" clip-path="url(#clipPath31)" stroke="none">in07</text>
      <rect x="1016" y="10" clip-path="url(#clipPath32)" fill="rgb(255,245,181)" width="176" height="50" stroke="none" />
      <rect x="1016" y="10" clip-path="url(#clipPath32)" fill="none" width="175" height="49" />
      <text xml:space="preserve" x="1071" y="30" clip-path="url(#clipPath33)" stroke="none">orange</text>
      <text xml:space="preserve" x="1019" y="53" clip-path="url(#clipPath33)" stroke="none">: actComCompany</text>
      <line clip-path="url(#clipPath34)" fill="none" x1="1103" x2="1103" y1="60" y2="960" stroke-dasharray="10,10" stroke-width="1.1" />
    </g>
    <g fill="rgb(39,76,114)" stroke-dasharray="10,10" stroke-width="1.1" stroke-linecap="butt" stroke="rgb(39,76,114)">
      <rect x="1094" y="810" clip-path="url(#clipPath35)" width="20" height="40" stroke="none" />
      <rect x="1094" y="810" clip-path="url(#clipPath35)" fill="none" width="19" stroke-dasharray="none" height="39" stroke-width="0.1" />
    </g>
    <g font-size="19" stroke-width="0.1" stroke-linecap="butt">
      <text xml:space="preserve" x="1115" y="828" clip-path="url(#clipPath36)" stroke="none">out06</text>
      <rect x="1094" y="630" clip-path="url(#clipPath37)" fill="rgb(194,239,255)" width="20" height="40" stroke="none" />
      <rect x="1094" y="630" clip-path="url(#clipPath37)" fill="none" width="19" height="39" stroke="rgb(194,239,255)" />
      <text xml:space="preserve" x="1115" y="648" clip-path="url(#clipPath38)" stroke="none">in06</text>
      <rect x="1094" y="870" clip-path="url(#clipPath39)" fill="rgb(194,239,255)" width="20" height="40" stroke="none" />
      <rect x="1094" y="870" clip-path="url(#clipPath39)" fill="none" width="19" height="39" stroke="rgb(194,239,255)" />
      <text xml:space="preserve" x="1115" y="888" clip-path="url(#clipPath40)" stroke="none">in08</text>
      <line clip-path="url(#clipPath41)" fill="none" x1="761" x2="45" y1="90" y2="90" stroke="rgb(136,136,136)" stroke-width="2.1" />
      <text x="242" y="87" clip-path="url(#clipPath42)" stroke="none" stroke-width="2.1" xml:space="preserve">oeCreateSystemAndEnvironment()</text>
      <line clip-path="url(#clipPath43)" fill="none" x1="52" x2="45" y1="87" y2="90" stroke="rgb(136,136,136)" stroke-width="2.1" />
      <line clip-path="url(#clipPath43)" fill="none" x1="45" x2="52" y1="90" y2="93" stroke="rgb(136,136,136)" stroke-width="2.1" />
      <line clip-path="url(#clipPath41)" fill="none" x1="921" x2="45" y1="210" y2="210" stroke="rgb(136,136,136)" stroke-width="2.1" />
      <text x="316" y="207" clip-path="url(#clipPath44)" stroke="none" stroke-width="2.1" xml:space="preserve">oeLogin("014092450D","6543210")</text>
      <line clip-path="url(#clipPath45)" fill="none" x1="52" x2="45" y1="207" y2="210" stroke="rgb(136,136,136)" stroke-width="2.1" />
      <line clip-path="url(#clipPath45)" fill="none" x1="45" x2="52" y1="210" y2="213" stroke="rgb(136,136,136)" stroke-width="2.1" />
      <line clip-path="url(#clipPath41)" fill="none" x1="921" x2="45" y1="330" y2="330" stroke="rgb(136,136,136)" stroke-width="2.1" />
      <text x="243" y="327" clip-path="url(#clipPath46)" stroke="none" stroke-width="2.1" xml:space="preserve">oeSearchPI("Cactus","Supermarket","Esch/Alzette")</text>
      <line clip-path="url(#clipPath47)" fill="none" x1="52" x2="45" y1="327" y2="330" stroke="rgb(136,136,136)" stroke-width="2.1" />
      <line clip-path="url(#clipPath47)" fill="none" x1="45" x2="52" y1="330" y2="333" stroke="rgb(136,136,136)" stroke-width="2.1" />
      <line clip-path="url(#clipPath41)" fill="none" x1="921" x2="45" y1="450" y2="450" stroke="rgb(136,136,136)" stroke-width="2.1" />
      <text x="359" y="447" clip-path="url(#clipPath48)" stroke="none" stroke-width="2.1" xml:space="preserve">oeGetGPSLocation("1001")</text>
      <line clip-path="url(#clipPath49)" fill="none" x1="52" x2="45" y1="447" y2="450" stroke="rgb(136,136,136)" stroke-width="2.1" />
      <line clip-path="url(#clipPath49)" fill="none" x1="45" x2="52" y1="450" y2="453" stroke="rgb(136,136,136)" stroke-width="2.1" />
      <line clip-path="url(#clipPath41)" fill="none" x1="921" x2="45" y1="690" y2="690" stroke="rgb(136,136,136)" stroke-width="2.1" />
      <text x="434" y="687" clip-path="url(#clipPath50)" stroke="none" stroke-width="2.1" xml:space="preserve">oeLogout()</text>
      <line clip-path="url(#clipPath51)" fill="none" x1="52" x2="45" y1="687" y2="690" stroke="rgb(136,136,136)" stroke-width="2.1" />
      <line clip-path="url(#clipPath51)" fill="none" x1="45" x2="52" y1="690" y2="693" stroke="rgb(136,136,136)" stroke-width="2.1" />
      <line clip-path="url(#clipPath41)" fill="none" x1="1094" x2="45" y1="810" y2="810" stroke="rgb(136,136,136)" stroke-width="2.1" />
      <text x="58" y="807" clip-path="url(#clipPath52)" stroke="none" stroke-width="2.1" xml:space="preserve">oeAlert("Witness","Cactus","Esch/Alzette","27/03/2018","10:00","Supermarket on fire!","661777777","High")</text>
      <line clip-path="url(#clipPath53)" fill="none" x1="52" x2="45" y1="807" y2="810" stroke="rgb(136,136,136)" stroke-width="2.1" />
      <line clip-path="url(#clipPath53)" fill="none" x1="45" x2="52" y1="810" y2="813" stroke="rgb(136,136,136)" stroke-width="2.1" />
    </g>
    <g stroke-linecap="butt" font-size="19" fill="rgb(136,136,136)" stroke-dasharray="5,5" stroke="rgb(136,136,136)" stroke-width="2.1">
      <line clip-path="url(#clipPath41)" fill="none" x1="761" x2="45" y1="150" y2="150" />
      <text x="317" y="147" clip-path="url(#clipPath54)" fill="black" stroke="none" xml:space="preserve">ieSystemCreated()</text>
      <line clip-path="url(#clipPath55)" fill="none" x1="754" x2="761" y1="153" y2="150" stroke-dasharray="none" />
      <line clip-path="url(#clipPath55)" fill="none" x1="761" x2="754" y1="150" y2="147" stroke-dasharray="none" />
      <line clip-path="url(#clipPath41)" fill="none" x1="921" x2="45" y1="270" y2="270" />
      <text x="278" y="267" clip-path="url(#clipPath56)" fill="black" stroke="none" xml:space="preserve">ieLoggedIn(You are logged in, 014092450D)</text>
      <line clip-path="url(#clipPath57)" fill="none" x1="914" x2="921" y1="273" y2="270" stroke-dasharray="none" />
      <line clip-path="url(#clipPath57)" fill="none" x1="921" x2="914" y1="270" y2="267" stroke-dasharray="none" />
      <line clip-path="url(#clipPath41)" fill="none" x1="921" x2="45" y1="390" y2="390" />
      <text x="174" y="387" clip-path="url(#clipPath58)" fill="black" stroke="none" xml:space="preserve">ieMessage(The point of interest is in the system. How to proceed?)</text>
      <line clip-path="url(#clipPath59)" fill="none" x1="914" x2="921" y1="393" y2="390" stroke-dasharray="none" />
      <line clip-path="url(#clipPath59)" fill="none" x1="921" x2="914" y1="390" y2="387" stroke-dasharray="none" />
      <line clip-path="url(#clipPath41)" fill="none" x1="921" x2="45" y1="510" y2="510" />
      <text x="208" y="507" clip-path="url(#clipPath60)" fill="black" stroke="none" xml:space="preserve">ieMessage(The GPS location of the PI is: 56.8989/46.7878.)</text>
      <line clip-path="url(#clipPath61)" fill="none" x1="914" x2="921" y1="513" y2="510" stroke-dasharray="none" />
      <line clip-path="url(#clipPath61)" fill="none" x1="921" x2="914" y1="510" y2="507" stroke-dasharray="none" />
      <line clip-path="url(#clipPath41)" fill="none" x1="921" x2="45" y1="570" y2="570" />
      <text x="162" y="567" clip-path="url(#clipPath62)" fill="black" stroke="none" xml:space="preserve">ieMessage(Your Sms has been sent to your communication operator.)</text>
      <line clip-path="url(#clipPath63)" fill="none" x1="914" x2="921" y1="573" y2="570" stroke-dasharray="none" />
      <line clip-path="url(#clipPath63)" fill="none" x1="921" x2="914" y1="570" y2="567" stroke-dasharray="none" />
      <line clip-path="url(#clipPath41)" fill="none" x1="1094" x2="45" y1="630" y2="630" />
      <text x="200" y="627" clip-path="url(#clipPath64)" fill="black" stroke="none" xml:space="preserve">ieSmsSend(Cactus,Supermarket,Esch/Alzette,661777777,Supermarket on fire!)</text>
      <line clip-path="url(#clipPath65)" fill="none" x1="1087" x2="1094" y1="633" y2="630" stroke-dasharray="none" />
      <line clip-path="url(#clipPath65)" fill="none" x1="1094" x2="1087" y1="630" y2="627" stroke-dasharray="none" />
      <line clip-path="url(#clipPath41)" fill="none" x1="921" x2="45" y1="750" y2="750" />
      <text x="327" y="747" clip-path="url(#clipPath66)" fill="black" stroke="none" xml:space="preserve">ieLoggedOut(You are logged out!)</text>
      <line clip-path="url(#clipPath67)" fill="none" x1="914" x2="921" y1="753" y2="750" stroke-dasharray="none" />
      <line clip-path="url(#clipPath67)" fill="none" x1="921" x2="914" y1="750" y2="747" stroke-dasharray="none" />
      <line clip-path="url(#clipPath41)" fill="none" x1="1094" x2="45" y1="870" y2="870" />
      <text x="334" y="867" clip-path="url(#clipPath68)" fill="black" stroke="none" xml:space="preserve">ieMessage(Alert has been sent. It will be handled!)</text>
      <line clip-path="url(#clipPath69)" fill="none" x1="1087" x2="1094" y1="873" y2="870" stroke-dasharray="none" />
      <line clip-path="url(#clipPath69)" fill="none" x1="1094" x2="1087" y1="870" y2="867" stroke-dasharray="none" />
    </g>
  </g>
</svg>

